<?xml version="1.0" standalone="no"?>
<!DOCTYPE svg PUBLIC "-//W3C//DTD SVG 1.1//EN" "http://www.w3.org/Graphics/SVG/1.1/DTD/svg11.dtd">
<svg xmlns="http://www.w3.org/2000/svg">
<metadata>Generated by Fontastic.me</metadata>
<defs>
<font id="untitled-font-5" horiz-adv-x="512">
<font-face font-family="untitled-font-5" units-per-em="512" ascent="480" descent="-32"/>
<missing-glyph horiz-adv-x="512" />

<glyph glyph-name="becas-1" unicode="&#99;" d="M244 228l-226 97 233 96 224-93z m219-49l0-4c-1 0-2 2-3 2 2 1 3 2 3 2z m12-14c4 4 6 9 6 15 0 9-6 18-15 21l0 127-14 0 0-127c-9-3-16-10-16-21 0-6 4-12 9-16-5-14-11-42-6-80l45 0c2 39-4 67-9 81z m-12 14l0-4c-1 0-2 2-3 2 2 1 3 2 3 2z m0 0l0-4c-1 0-2 2-3 2 2 1 3 2 3 2z m-89 89c0-2-112-50-133-59-22 9-132 57-132 59l0-144c36-36 106-42 129-42 0 0 1 0 4 0 2 0 4 0 4 0 23 1 93 6 129 42l0 144z"/>
<glyph glyph-name="biblioteca" unicode="&#121;" d="M460 353l0-274c-107 36-194 17-194 17-105 19-198-15-198-15l0 272c8 5 16 9 25 12l0-250c0 0 84 50 172 0 0 0 73 55 168 0l0 250c16-5 27-12 27-12z m-369-243l0 269 1 1c35 19 81 19 114 14 31-4 56-11 62-14 94 42 166 0 166 0l1-1 0-269-4 3c-92 53-163 1-165 0l-1-2-1 2c-86 48-168 0-169 0z m89 30c25 0 54-6 84-22 5 4 21 14 48 20 27 7 69 8 117-19l0 256c-10 5-76 38-161-1l-3 0c-1 0-105 36-170 1l0-256c7 4 25 12 50 17 11 2 23 4 35 4z m88 220c1-18 1-35 2-53 0-9 0-18 0-25l0-52c0-9 0-18 0-25 0-18-1-35-2-53-2 18-2 35-3 53 0 9 0 18 0 25l0 52c0 9 0 18 0 25 0 18 1 35 3 53z"/>
<glyph glyph-name="bolsa-de-trabajo" unicode="&#66;" d="M82 264l334 0 1 148-83 0 0 14c0 16-13 27-27 27l-115 0c-15 0-27-13-27-27l0-14-83 0z m96 156c0 15 13 27 27 27l86 0c15 0 26-13 26-27l0-7-140 0 0 7z m261-8l-8 0-1-162-361 0 0 162-6 0c-16 0-27-13-27-27l0-265c0-15 13-27 27-27l376 0c15 0 27 13 27 27l0 265c0 16-13 27-27 27z m-168-225l-41 0 0 41 41 0z"/>
<glyph glyph-name="servicio-social" unicode="&#67;" d="M13 212l25-43 23 0c0 0 15-3 16-21 1-17 0-52 0-52l45-36 0 106c0 0-7 35-35 45l-74 0z m153 39c0-20-16-36-35-36-20 0-36 16-36 36 0 20 16 36 36 36 19 0 35-16 35-36z m81-39l-26-43-23 0c0 0-14-3-15-21-1-17 0-52 0-52l-45-36 0 106c0 0 7 35 35 45l74 0z m21 0l25-43 23 0c0 0 14-3 16-21 1-17 0-52 0-52l44-36 0 106c0 0-6 35-34 45l-74 0z m153 39c0-20-16-36-36-36-20 0-36 16-36 36 0 20 16 36 36 36 20 0 36-16 36-36z m81-39l-26-43-23 0c0 0-14-3-15-21-2-17 0-52 0-52l-45-36 0 106c0 0 6 35 35 45l74 0z m-362 158l25-44 23 0c0 0 14-2 16-20 1-18 0-53 0-53l44-35 0 106c0 0-6 34-34 45l-74 0z m154 38c0-19-16-36-35-36-20 0-36 17-36 36 0 20 16 36 36 36 19 0 35-16 35-36z m80-38l-26-44-23 0c0 0-14-2-15-20-2-18 0-53 0-53l-45-35 0 106c0 0 6 34 35 45l74 0z"/>
<glyph glyph-name="servicios-en-computo" unicode="&#68;" d="M394 154l-348 0 0 211 348 0z m-342 6l336 0 0 198-336 0z m126-4l88 0 0-20-88 0z m-56-27l195 0 0-11-195 0z m254 213l0-224 105 0 0 224z m57-192c-5 0-9 4-9 9 0 5 4 9 9 9 5 0 9-4 9-9-2-5-6-9-9-9z m33 141l-72 0 0 14 72 0z m0 19l-72 0 0 14 72 0z"/>
<glyph glyph-name="servicios-escolares" unicode="&#69;" d="M366 308l30 30 0 133-258 0-91-104 91 103 0-103-91 0 0-313 349 0 0 222-29-28 0-16-16 0c-9-8-45-20-51-21 1 3 2 12 6 21l-227 0 0 27 237 0c0 1 1 1 1 1l22 22-260 0 0 26z m-224 100l225 0 0-27-225 0z m223-279l-288 0 0 27 288 0z m0 76l0-27-288 0 0 27z m-288 128l0 27 288 0 0-27z m383 38c-4 4-8 5-13 5-5 0-9-1-13-5l-73-73-22-22-18-17c0 0-1-2-1-2-3-4-6-13-9-21-3-8-4-16-5-17 5 1 36 10 42 17l110 110c4 3 5 7 5 12 2 6 0 11-3 13z m-120-135l-23-9-2 2 2 7 8 20 19-19z"/>
<glyph glyph-name="linkedin-square" unicode="&#98;" d="M104 108l66 0 0 198-66 0z m71 259c-1 10-4 19-11 25-6 6-15 10-26 10-11 0-20-4-27-10-7-6-11-15-11-25 0-9 4-17 10-24 7-7 16-10 27-10l0 0c11 0 20 3 27 10 7 7 11 15 11 24z m167-259l66 0 0 114c0 29-7 51-21 66-14 15-32 23-55 23-26 0-46-11-60-34l1 0 0 29-66 0c0-12 0-78 0-198l66 0 0 111c0 7 0 12 2 16 2 7 7 12 12 17 6 5 13 7 22 7 22 0 33-15 33-45z m133 285l0-274c0-23-8-42-24-58-16-16-35-24-58-24l-274 0c-23 0-42 8-58 24-16 16-24 35-24 58l0 274c0 23 8 42 24 58 16 16 35 24 58 24l274 0c23 0 42-8 58-24 16-16 24-35 24-58z"/>
<glyph glyph-name="facebook-official" unicode="&#100;" d="M451 475c7 0 13-2 17-7 5-4 7-10 7-17l0-390c0-7-2-13-7-17-4-5-10-7-17-7l-112 0 0 170 57 0 9 66-66 0 0 42c0 11 3 19 7 24 5 5 13 8 26 8l35 0 0 60c-12 1-29 2-51 2-26 0-46-7-62-23-15-15-23-36-23-64l0-49-57 0 0-66 57 0 0-170-210 0c-7 0-13 2-17 7-5 4-7 10-7 17l0 390c0 7 2 13 7 17 4 5 10 7 17 7z"/>
<glyph glyph-name="twitter-square" unicode="&#101;" d="M402 338c-10-5-22-8-34-10 13 8 22 19 26 33-12-7-25-12-38-14-12 12-26 19-44 19-16 0-30-6-42-18-12-12-18-26-18-42 0-6 1-10 2-14-25 1-48 8-69 19-22 11-40 25-55 44-6-10-9-20-9-30 0-22 9-39 26-50-9 0-18 2-28 7l0-1c0-14 5-27 14-38 10-11 21-18 35-20-5-2-10-3-14-3-3 0-6 1-11 1 4-12 11-21 21-29 10-8 22-12 35-12-23-17-47-26-75-26-5 0-10 0-14 1 28-18 59-27 92-27 21 0 41 3 60 10 18 7 34 16 48 27 13 12 25 25 34 39 10 15 17 31 22 47 4 16 7 32 7 48 0 3-1 6-1 8 12 8 22 19 30 31z m73 55l0-274c0-23-8-42-24-58-16-16-35-24-58-24l-274 0c-23 0-42 8-58 24-16 16-24 35-24 58l0 274c0 23 8 42 24 58 16 16 35 24 58 24l274 0c23 0 42-8 58-24 16-16 24-35 24-58z"/>
<glyph glyph-name="pinterest" unicode="&#102;" d="M475 256c0-40-9-77-29-110-20-34-46-60-80-80-33-20-70-29-110-29-21 0-42 3-62 9 11 17 18 33 22 47 2 6 7 26 15 60 4-8 11-14 21-19 10-6 21-9 33-9 23 0 43 7 62 20 18 13 32 31 42 54 9 23 14 48 14 77 0 22-5 42-17 61-11 19-27 35-49 47-21 12-46 18-73 18-20 0-38-3-56-9-17-5-32-12-44-22-12-9-22-19-31-31-9-12-15-24-19-37-4-13-6-26-6-38 0-20 4-38 11-53 8-15 19-25 34-31 5-3 9-1 10 5 1 2 2 5 3 9 1 5 2 8 2 9 1 4 0 8-3 12-10 12-15 26-15 43 0 29 10 54 30 74 20 21 46 31 78 31 29 0 51-8 68-23 16-16 24-36 24-61 0-32-7-60-20-83-13-22-30-34-50-34-12 0-21 5-28 13-7 8-9 18-7 30 2 6 4 15 8 26 4 12 6 21 9 30 2 8 3 16 3 21 0 10-3 18-8 24-5 6-12 10-22 10-12 0-22-6-30-17-8-11-12-24-12-40 0-14 2-26 7-35l-28-120c-4-13-5-30-4-50-39 17-71 44-95 80-24 36-36 77-36 121 0 40 9 77 29 110 20 34 46 60 80 80 33 20 70 29 110 29 40 0 77-9 110-29 34-20 60-46 80-80 20-33 29-70 29-110z"/>
<glyph glyph-name="envelope-o" unicode="&#103;" d="M475 82l0 220c-6-7-12-13-19-19-51-39-92-72-122-97-10-8-18-14-24-19-6-4-14-9-24-14-11-4-21-7-30-7l0 0c-9 0-19 3-30 7-10 5-18 10-24 14-6 5-14 11-24 19-30 25-71 58-122 97-7 6-13 12-19 19l0-220c0-2 0-4 2-6 2-2 4-3 7-3l420 0c3 0 5 1 7 3 2 2 2 4 2 6z m0 301l0 7 0 3-1 4-1 2-3 3-4 0-420 0c-3 0-5-1-7-2-2-2-2-4-2-7 0-32 14-59 42-81 36-29 75-59 114-91 1-1 5-3 10-8 6-5 10-8 13-11 4-2 8-5 13-9 5-3 10-6 14-8 5-1 9-2 13-2l0 0c4 0 8 1 13 2 4 2 9 5 14 8 5 4 9 7 13 9 3 3 7 6 13 11 5 5 9 7 10 8 39 32 78 62 114 91 11 8 20 19 29 33 9 14 13 26 13 38z m37 10l0-311c0-12-4-23-13-32-9-9-20-13-33-13l-420 0c-13 0-24 4-33 13-9 9-13 20-13 32l0 311c0 13 4 23 13 32 9 9 20 14 33 14l420 0c13 0 24-5 33-14 9-9 13-19 13-32z"/>
<glyph glyph-name="youtube-play" unicode="&#104;" d="M366 256c0 7-3 12-9 15l-146 92c-6 4-12 4-19 0-6-3-9-8-9-16l0-182c0-8 3-13 9-16 3-2 6-3 9-3 4 0 7 1 10 3l146 92c6 3 9 8 9 15z m146 0c0-18 0-33 0-43 0-10-1-23-3-39-1-16-3-30-6-42-3-14-10-26-20-35-10-10-22-15-35-17-43-4-106-7-192-7-86 0-149 3-192 7-13 2-25 7-35 17-10 9-17 21-20 35-3 12-5 26-6 42-2 16-3 29-3 39 0 10 0 25 0 43 0 18 0 33 0 43 0 10 1 23 3 39 1 16 3 30 6 42 3 14 10 26 20 35 10 10 22 15 35 17 43 4 106 7 192 7 86 0 149-3 192-7 13-2 25-7 35-17 10-9 17-21 20-35 3-12 5-26 6-42 2-16 3-29 3-39 0-10 0-25 0-43z"/>
<glyph glyph-name="calendar" unicode="&#105;" d="M352 256l-32 0 0-64 32 0z m-64 0l-32 0 0-64 32 0z m64 96l-32 0 0-64 32 0z m64-96l-32 0 0-64 32 0z m-128-96l-32 0 0-64 32 0z m96 352l-32 0 0-64 32 0z m-256 0l-32 0 0-64 32 0z m288-160l-32 0 0-64 32 0z m-128 0l-32 0 0-64 32 0z m-128-192l-32 0 0-64 32 0z m-64 96l-32 0 0-64 32 0z m64 0l-32 0 0-64 32 0z m256 224l0-64-96 0 0 64-160 0 0-64-96 0 0 64-64 0 0-448 480 0 0 448z m32-416l-416 0 0 320 416 0z m-352 96l-32 0 0-64 32 0z m128 192l-32 0 0-64 32 0z m0-192l-32 0 0-64 32 0z m-64 192l-32 0 0-64 32 0z m64-96l-32 0 0-64 32 0z m128-96l-32 0 0-64 32 0z"/>
<glyph glyph-name="signal" unicode="&#107;" d="M256 154c14 0 26-6 36-16 10-10 15-22 15-36 0-14-5-26-15-36-10-10-22-15-36-15-14 0-25 5-35 15-10 10-15 22-15 36 0 14 5 26 15 36 10 10 21 16 35 16m-108 57c31 30 66 45 108 45 42 0 77-15 108-45 0 0-36-37-36-37-20 20-44 30-72 30-28 0-52-10-72-30 0 0-36 37-36 37m-71 72c50 50 110 75 180 75 69 0 129-25 178-75 0 0-36-36-36-36-39 40-87 60-142 60-56 0-104-20-144-60 0 0-36 36-36 36m-72 72c70 71 154 106 252 106 97 0 181-35 250-106 0 0-36-36-36-36-59 61-131 91-215 91-84 0-156-30-215-91 0 0-36 36-36 36"/>
<glyph glyph-name="logo-de-instagram" unicode="&#106;" d="M371 512l-230 0c-78 0-141-63-141-141l0-230c0-78 63-141 141-141l230 0c78 0 141 63 141 141l0 230c0 78-63 141-141 141z m96-371c0-53-43-96-96-96l-230 0c-53 0-96 43-96 96l0 230c0 53 43 96 96 96l230 0c53 0 96-43 96-96l0-230z m-211 247c-73 0-132-59-132-132 0-73 59-132 132-132 73 0 132 59 132 132 0 73-59 132-132 132z m0-219c-48 0-86 39-86 87 0 48 38 86 86 86 48 0 87-38 87-86 0-48-39-87-87-87z m138 257c-9 0-18-3-24-9-6-7-10-15-10-24 0-9 4-17 10-23 6-7 15-10 24-10 8 0 17 3 23 10 6 6 10 14 10 23 0 9-4 17-10 24-6 6-15 9-23 9z"/>
<glyph glyph-name="sobre" unicode="&#108;" d="M49 333c7-4 26-18 59-40 32-23 57-40 74-53 2-1 6-4 13-8 6-5 11-8 15-11 4-3 9-6 15-9 6-4 11-6 16-8 5-2 10-3 15-3l0 0c4 0 9 1 14 3 6 2 11 4 17 8 6 3 11 6 15 9 4 3 9 6 15 11 6 4 10 7 12 8 18 13 62 44 134 93 14 10 25 22 35 35 9 14 14 28 14 43 0 13-5 24-14 33-9 9-20 13-32 13l-420 0c-15 0-26-5-34-15-8-10-12-22-12-37 0-12 5-25 16-39 10-14 21-25 33-33z m434-30c-62-43-110-75-142-99-11-8-20-14-27-18-6-5-15-10-26-14-12-5-22-7-32-7l0 0c-10 0-21 2-32 7-11 4-20 9-27 14-7 4-15 10-26 18-26 19-73 52-142 99-11 7-21 15-29 25l0-227c0-13 4-23 13-32 9-9 20-14 33-14l420 0c13 0 23 5 32 14 9 9 14 19 14 32l0 227c-9-10-18-18-29-25z"/>
<glyph glyph-name="youtube" unicode="&#109;" d="M406 437l-300 0c-58 0-106-47-106-106l0-150c0-59 48-106 106-106l300 0c58 0 106 47 106 106l0 150c0 59-48 106-106 106z m-72-188l-140-67c-4-2-8 1-8 5l0 138c0 4 4 7 8 5l140-71c4-2 4-8 0-10z"/>
<glyph glyph-name="buscar-incidencias" unicode="&#110;" d="M451 451c-39 39-91 61-146 61-56 0-108-22-147-61-39-39-61-91-61-146 0-42 13-83 36-117l-122-122c-15-15-15-39 0-55 8-7 17-11 28-11 10 0 20 4 27 11l122 122c34-23 75-36 117-36 55 0 107 22 146 61 39 39 61 91 61 147 0 55-22 107-61 146z m-16-276c-35-35-81-54-130-54-49 0-95 19-130 54-35 35-54 81-54 130 0 49 19 95 54 130 35 34 81 53 130 53 49 0 95-19 130-53 34-35 53-81 53-130 0-49-19-95-53-130z m-118 271c0-7-6-12-12-12-72 0-130-58-130-129 0-7-5-12-11-12-7 0-12 5-12 12 0 84 68 153 153 153 6 0 12-6 12-12z"/>
<glyph glyph-name="c" unicode="&#111;" d="M205 453l5-23c0 0 107 22 162-81l24 12c0-1-50 113-191 92z m152-113c0 0-37 84-142 68l3-18 1-7c0 0 74 15 114-55z m-134 17c65 10 88-43 88-43l-10-6-12-6c0 0-19 35-60 30z m-54-79c0-22-18-40-40-40-22 0-39 18-39 40 0 22 17 39 39 39 22 0 40-17 40-39z m107-4c0-22-17-40-39-40-22 0-40 18-40 40 0 22 18 40 40 40 22 0 39-18 39-40z m103 1c0-22-18-39-40-39-22 0-39 17-39 39 0 22 17 40 39 40 22 0 40-18 40-40z m91-98l-59 0 29 52 60 0z m-72-75l-51-41 0 112 51 0z m-100 0l41-41 0 112-27 0c-7 0-12-7-12-13l0-58z m-121 0l-41-41 0 112 27 0c7 0 12-7 12-13l0-58z m-171 126l30-50 25 0c0 0 13-1 15-21 1-19-2-52-2-52l53-44 0 116c0 0-8 39-39 52l-82 0z m429 0l-29-51-96 0c0 0-19 0-21-20-1-19 0-57 0-57l-50-40 0 118c0 0 8 38 39 50z m-324-3l30-50 25 0c0 0 13-1 14-20 2-19-1-53-1-53l53-43 0 115c0 0-8 40-39 53l-82 0z"/>
<glyph glyph-name="cfmi" unicode="&#112;" d="M468 257l-47 5c-4 25-14 48-27 67l30 37-36 36-37-30c-4 3-9 7-13 9l0 54 13 0c6 0 13 5 13 13l0 13c0 6-6 13-13 13l-50 0 0-117c105-38 116-184 18-239-104-59-224 39-192 151 13 43 42 74 80 88l0 117-50 0c-6 0-12-6-12-13l0-13c0-6 5-13 12-13l13 0 0-55c-4-2-7-5-11-8l-39 31-36-36 30-37c-14-19-23-42-28-66l-48-5 0-50 48-5c4-25 14-48 27-67l-30-37 36-36 37 29c19-14 42-23 67-28l5-47 50 0 5 47c24 4 47 14 66 27l38-29 35 36-29 37c14 19 23 42 28 66l47 5z m-102-24c0-64-51-115-115-115-64 0-115 51-115 115 0 64 57-22 121-22 64 0 109 86 109 22z"/>
<glyph glyph-name="ciencias-sociales" unicode="&#113;" d="M41 306l0-40 45 0c0 0 13-2 14-18 0-15 0-47 0-47l41-32 0 97c0 0-7 32-31 41l-69 0z m139 34c0-18-14-33-33-33-18 0-33 15-33 33 0 19 15 34 33 34 19 0 33-15 33-34z m66-34l0-40-39 0c0 0-12-2-14-18 0-15 0-47 0-47l-39-33 0 97c0 0 6 32 30 41z m15 0l0-40 39 0c0 0 12-2 14-18 0-15 0-47 0-47l41-32 0 97c0 0-7 32-31 41z m135 34c0-18-15-33-34-33-18 0-33 15-33 33 0 19 15 34 33 34 19 0 34-15 34-34z m71-34l0-40-45 0c0 0-12-2-14-18 0-15 0-47 0-47l-41-32 0 97c0 0 7 32 31 41z m-434-223c8 7 16 12 25 18 9 5 16 10 25 14 9 4 18 9 27 13 9 4 19 6 28 10 5 2 9 3 14 4 5 1 11 3 14 4 11 2 20 4 30 5 10 1 20 3 29 3 11 0 21 1 30 0 5 0 10 0 15 0 5 0 10-2 15-2 6 0 11-1 16-1l7-1c2 0 3 0 4 0l4-2c19-3 40-7 58-14 19-6 37-14 55-21 18-9 36-18 52-29-34 18-71 34-109 45l-7 3c-3 1-5 1-8 1-5 1-9 3-14 4-9 3-19 4-29 5-6 1-11 1-14 3-6 0-11 1-15 1-5 0-10 1-14 1-5 0-10 0-14 0-19 0-39-1-59-2-19-3-38-7-57-12-19-5-37-11-55-20-5-3-9-4-13-7-4-2-9-4-13-6-4-3-9-5-13-8-5-4-10-6-14-9z"/>
<glyph glyph-name="cise" unicode="&#114;" d="M282 435l43 0-14-23-1-2-14 0c0 0-9-2-9-12 0-10 0-31 0-31l-26-21 0 62c0 0 3 12 10 20 3 3 7 6 11 7z m-4 22c0-12-10-22-22-22-12 0-22 10-22 22 0 12 10 22 22 22 12 0 22-10 22-22z m-90-22l44 0c4-1 6-4 9-6 9-9 10-21 10-21l0-62-27 20c0 0 0 21 0 31 0 10-9 11-9 11l-14 0-3 5z m42-363l-43 0 14 23 1 2 14 0c0 0 9 2 9 12 0 10 0 31 0 31l27 20 0-63c0 0-2-11-10-19-4-2-6-5-12-6z m48-22c0-12-10-22-22-22-12 0-22 10-22 22 0 12 10 22 22 22 12 0 22-10 22-22z m46 22l-44 0c-4 1-6 4-9 6-9 9-10 21-10 21l0 62 27-20c0 0 0-21 0-31 0-10 9-11 9-11l14 0 3-6z m-250 207l0 44 23-15 3-1 0-13c0 0 1-9 11-9 11 0 31 0 31 0l21-26-62 0c0 0-11 2-19 10-4 2-6 6-8 10z m0-26c0-12-10-21-22-21-12 0-21 9-21 21 0 12 9 22 21 22 12 0 22-10 22-22z m0-67l0 44c2 4 4 7 7 9 9 9 20 11 20 11l63 0-21-27c0 0-20 0-30 0-11 0-12-9-12-9l0-14-5-3z m360 94l0 44-24-14-3-2 0-14c0 0-1-9-11-9-11 0-31 0-31 0l-21-26 63 0c0 0 12 2 19 10 3 4 5 7 8 11z m43-25c0-12-9-22-21-22-12 0-22 10-22 22 0 12 10 21 22 21 12 0 21-9 21-21z m-43-68l0 43c-1 4-4 7-6 9-9 9-21 11-21 11l-63 0 21-27c0 0 20 0 31 0 10 0 11-9 11-9l0-14 5-3z m-326-41l-31 31 25 6 3 0 10-10c0 0 8-5 14 2 8 7 22 22 22 22l33-4-44-45c0 0-9-6-21-6-4 1-8 1-11 4z m23-35c0-12-10-21-22-21-12 0-22 9-22 21 0 12 10 22 22 22 12 0 22-10 22-22z m42-32l-31 31c-1 4-2 8-2 12 0 11 6 21 6 21l45 45 4-33c0 0-16-14-22-22-7-8-3-14-3-14l10-10-1-7z m230 66l31 30-27 7-3 0-7-8c0 0-8-5-14 3-7 7-22 21-22 21l-33-3 44-45c0 0 9-7 21-7 3-1 6 0 10 2z m21-34c0-12-10-21-22-21-12 0-22 9-22 21 0 12 10 22 22 22 12 0 22-10 22-22z m-86-32l31 31c1 4 2 8 2 12 0 11-6 21-6 21l-45 44-4-33c0 0 16-14 22-22 6-8 2-14 2-14l-10-10 2-6z m-196 319l31 31 6-26 0-2-10-11c0 0-5-7 3-14 6-7 21-21 21-21l-4-34-44 45c0 0-7 9-7 21 2 3 2 7 4 11z m-13-2c0-12-9-22-21-22-12 0-22 10-22 22 0 12 10 21 22 21 12 0 21-9 21-21z m-53-64l30 30c4 2 8 3 12 3 11 0 22-7 22-7l44-44-33-4c0 0-14 15-22 22-7 6-14 2-14 2l-10-10-5 1z m293 66l-31 31-6-27 0-3 10-10c0 0 5-8-3-14-6-8-22-22-22-22l4-33 45 45c0 0 6 9 6 20-1 5-2 9-3 13z m55-1c0-12-10-22-22-22-12 0-22 10-22 22 0 12 10 22 22 22 12 0 22-10 22-22z m10-64l-31 31c-4 1-7 2-11 2-12 0-22-6-22-6l-45-45 33-4c0 0 14 15 22 22 8 6 14 2 14 2l10-10 6 1z"/>
<glyph glyph-name="hya" unicode="&#115;" d="M462 349c6-5 8-15 1-21-9-9-142-155-142-155l-10 7 109 157c1 0 15 18 42 12z m-52 39c-8 4-17 1-21-7-5-10-98-185-98-185l12-9 109 157c0 0 13 21-2 44z m19 24c-10-14-7-33 6-43 14-11 33-7 42 7 11 14 7 34-6 44-13 10-32 8-42-8z m-145-302c-9-11-33-22-47-23l16 23c0 0 2 0 2 0 5 0 9 4 9 9 0 5-4 9-9 9-5 0-9-4-9-9 0-1 0-3 1-4l-19-27c-1 7 2 37 13 53 11 15 29 22 41 13 12-9 12-29 2-44z m-1 69l25-19c2-1 4-1 6 1l2 3c1 1 1 4-1 5l-26 19c-1 1-4 1-5-1l-2-3c-2-1 0-4 1-5z m-10-13l25-19c2-1 4-1 5 1l2 3c1 1 1 4-2 5l-25 19c-2 2-4 2-5-1l-2-2c0-2 0-4 2-6z m-246-46c9 3 18 3 27 4 9 1 18 1 27 0 18-1 35-4 52-10l5-3c2 0 3-1 3-1l2-1c4-1 8-4 12-5 8-3 17-3 24 1 4 1 7 5 9 8 1 1 3 3 3 5 0 1 1 1 1 2 0 2 0 3 1 3 3 8 0 17-6 22-3 2-7 5-9 7-4 3-8 4-12 4-2 0-3 0-6 0-1 0-3 0-3 0-1 0-2 0-2-1-4-1-8-4-10-7-3-2-5-6-7-10-1-4-2-7-4-11-1-8-1-17 2-26 1-4 4-8 6-11 3-4 6-7 9-8l1-1 3 0 2-2c3-1 4-1 7-2 2 0 4-1 6-1 2 0 3 0 4 0 1 0 3 0 4 0 9 0 18 1 26 2 1 0 2 0 3 1l3 2 4 1c1 0 2 1 2 1 4 1 9 3 13 4-4-1-8-4-13-5-1 0-2-1-2-1l-3-2-2-1c-2 0-3 0-4-1-9-3-18-4-27-4-1 0-3 0-4 0-1 0-2 0-4 0-2 0-5 0-6 1-3 0-4 2-7 2l-3 2-3 0-1 1c-4 3-8 5-10 9-3 4-6 8-7 12-4 9-4 18-1 28 1 5 2 9 4 13 1 4 4 9 7 11 4 4 8 7 13 8 1 0 3 1 4 1 1 0 3 0 4 0 2 0 5 0 8 0 8-1 17-6 24-14 2-4 5-7 6-13 2-2 2-5 2-7 0-2 0-3 0-4l0-3c0 0 0 0 0-1 0-1-2-3-2-4 0-1-1-2-1-4-1-2-3-3-4-6-2-4-6-6-11-9-4-3-9-4-14-4-6 0-11 0-15 3-5 1-7 4-11 6l-3 1c-1 0-2 2-2 2l-3 1-2 1c-8 4-17 7-26 8-9 2-17 4-26 4-8 1-17 1-26 1-4 0-9 0-13-1-9 4-14 4-18 2z"/>
<glyph glyph-name="posgrados" unicode="&#116;" d="M463 195c5-15 13-43 8-81l-43 0c-6 37 2 65 6 79-5 4-9 11-9 17 0 9 6 18 15 20l0 110-192-81-224 94 231 96 222-93-23-10 0-116c9-2 16-10 16-20 0-6-3-12-7-15z m-84 101l0-142c-5-6-12-11-19-14l0 126-41-18 0-125c-18-5-36-8-50-9l0 113-21-11-20 11 0-112c-14 1-33 4-53 9l0 126-42 19 1-127c-6 4-12 9-19 14l0 140c0-2 110-49 132-59 22 10 132 57 132 59z m-307-208c14 4 29 5 44 7 16 1 30 1 45 1 8 0 16-1 23-1 8-2 16-3 22-4 8-1 14-4 22-7 8-2 14-5 20-8l-4 0c2 1 4 2 6 2 1 1 3 1 5 3 4 1 7 2 11 5 8 2 16 5 23 7 8 3 16 4 25 6 2 0 3 0 6 1l6 0c4 0 8 0 12 1 17 0 32 0 49-4 15-2 32-7 46-13-16 4-31 8-48 11-7 1-15 1-24 1-4 0-8 0-12 0-3 0-7 0-11 0-15-1-32-4-47-8-8-2-16-4-23-7-4-2-8-3-12-5-1-2-4-2-5-3-1-1-4-1-5-3l-2-1-1 1c-6 4-13 7-20 9-2 0-4 2-5 2-2 0-4 1-6 1-1 0-3 1-5 1l-5 1c-14 4-29 6-43 7-16 1-30 1-45 1-13 0-28-1-42-4z m-32-23c16 4 34 7 52 9 17 3 35 3 51 3 9 0 18 0 27-1 9-2 18-2 27-3 9-1 18-4 26-5 9-3 16-5 25-9l-2 0c5 2 9 4 14 5 5 1 9 3 14 4 9 2 18 5 28 6 9 2 19 3 28 4 5 0 9 1 14 1 5 0 9 0 14 0 20 0 39-1 57-3 19-3 37-8 55-13-18 4-37 7-55 10-3 0-5 0-7 1-2 0-5 0-6 0-5 0-9 2-14 2-5 0-9 0-14 0-3 0-5 0-7 0l-7 0c-20 0-37-3-55-7-9-1-18-4-27-6-4-2-9-3-13-4-4-1-9-3-13-5l-2 0c-8 4-17 6-25 9-9 2-16 4-25 6-9 1-17 3-26 4-9 1-18 1-26 1-17 0-34 0-52-1-22-3-40-5-56-8z m-21-18c19 4 39 8 57 9 19 3 38 3 57 3 10 0 19 0 30-1 10-2 19-2 28-3 9-1 19-4 28-5 9-3 19-5 28-9l-3 0c6 3 11 4 16 5 5 1 10 3 15 4 10 2 21 5 31 6 10 2 20 3 31 4 5 0 10 1 15 1 5 0 10 0 15 0 21 0 41-1 62-3 20-3 41-8 60-14-21 5-40 7-60 10-3 0-5 0-8 1-2 0-5 0-8 0-5 0-10 1-15 1-5 0-10 0-15 0-3 0-5 0-8 0l-8 0c-20 0-41-2-60-6-10-1-20-4-29-6-5-2-10-3-14-4-5-2-11-3-14-5l-3 0c-9 3-18 6-27 9-9 2-18 3-28 6-9 1-19 2-28 4-9 1-19 1-28 1-20 0-39 0-58-1-20-2-40-4-59-7z"/>
<glyph glyph-name="unidad-juridica" unicode="&#118;" d="M137 264l0-39-38 0c0 8 0 17 0 23 0 14-13 17-13 17l-19 0-22 36 63 0c23-8 29-37 29-37z m38 70c0-17-13-31-30-31-17 0-31 14-31 31 0 17 14 31 31 31 17 0 30-14 30-31z m31-68l-5 0c0 0-12-2-13-16 0-7 0-14 0-23l-37 0 0 38c0 0 6 29 28 38l23 0c-1-3-4-24 4-37z m166-2l0-39-37 0c0 8 0 17 0 23 0 14-12 17-12 17 0 0 7 15 3 36l18 0c22-8 28-37 28-37z m39 70c0-17-14-31-31-31-17 0-31 14-31 31 0 17 14 31 31 31 17 0 31-14 31-31z m65-32l-22-36-19 0c0 0-11-2-13-16 0-7 0-14 0-23l-37 0 0 38c0 0 7 29 28 38l63 0z m-220 99l0-49c-12-1-24-6-32-14l-6 4c0 0 0 29 0 43 0 14-13 17-13 17l-19 0-22 36 63 0c23-8 29-37 29-37z m38 70c0-17-13-31-30-31-17 0-31 14-31 31 0 17 14 31 31 31 17 0 30-14 30-31z m66-32l-22-36-19 0c0 0-12-2-13-16 0-15 0-44 0-44l-4-4c-8 9-22 12-34 14l0 48c0 0 6 29 28 38z m-46-150c0-11-4-21-11-30-9-13-24-21-41-21-16 0-32 8-41 21-6 9-10 19-10 30 0 3 0 4 0 7 1 11 7 20 13 28 8 9 18 14 31 15 2 0 5 0 6 0 3 0 4 0 7 0 12-1 23-7 30-15 8-8 13-18 14-30 2-1 2-2 2-5z m-64-137l0-147-63 50c0 0 1 49 0 73-1 24-21 28-21 28l-32 0-37 62 105 0c39-14 48-66 48-66z m163 46l-2-3-22-38-32 0c0 0-20-3-20-28-2-24 0-73 0-73l-63-50 0 149c0 0 10 49 47 63l94 0c-3-8-3-16-2-20z m11 20l-12-20c0 4 0 12 0 20z"/>
<glyph glyph-name="arte-y-cultura" unicode="&#119;" d="M384 365c-12 2-70 89-99 64l-1-9 22-80c5 0 9 0 13 0 14-1 23-7 29-14 7-6 8-12 9-18 1-3 0-6 0-6-13 8-23 12-31 14-5 1-10 3-15 4l19-70 0-2c16 5 30 4 34 4 6-1 47-15 49-65 0 0-7 38-53 47-11 3-21 3-28 2 0-15-2-36-8-62-3-4-4-8-4-10 6-4 13-7 20-9 95-8 131 89 131 89l29 141c-15 34-103-21-116-20z m81-78c-5 1-12 4-20 5-7 1-15 2-24 4-9 1-19 1-34 0 0 0 0 2 2 6 3 4 8 9 15 13 8 4 20 5 34 1 13-4 27-14 34-32 0-1-2 0-7 3z m-411-110c0 0 0-2 1-3 0-1 1-1 1-2 2-2 2-3 3-6 0-1 1-1 1-2 0 0 0 0 0-1 0 0 0-2 1-2 0 0 0 0 0-1 0-1 2-1 2-3 1-1 2-3 4-6 0 0 0-1 1-1 0-2 1-2 1-3 0-1 1-1 1-2 0 0 2-2 2-2 0-1 1-1 1-2 0 0 1-1 1-1 0-2 2-2 2-3 1-1 1-3 2-4 1-1 3-2 4-4 0 0 1-1 1-1 1-1 1-1 3-3 1-1 2-2 4-3 1-2 1-2 2-3 1-1 1-1 3-3 1 0 1-1 2-1 2-1 2-1 3-2 1-2 2-3 4-4 1-1 2-1 2-3 2-1 3-1 3-2 4-2 5-2 7-3 4-2 7-5 11-6 4-3 7-4 11-7 23-11 51-18 86-14 22 9 40 22 52 36 0 0 2 1 2 3 1 2 4 3 5 6 1 1 1 3 2 3 0 0 2 1 2 1 0 1 1 1 1 2 0 2 1 2 1 3 0 0 0 1 2 1 0 2 1 2 1 3 0 1 1 1 1 2 8 13 13 26 17 38 7 24 9 47 9 62 0 5 0 8 0 10 0 3 0 4 0 4l-21 76-4 15-15 57-3 11-3 15c-5 4-12 6-18 6-3 0-4-2-7-2-2-2-4-4-5-4 0 0-1 0-1 0-1-1-4-1-5-2-3-1-7-4-9-7-4-2-7-5-10-9-2-1-2-1-3-2 0 0-1-1-1-1 0 0-2-2-2-2 0 0-1-1-1-1-1-1-1-1-2-2 0 0-2-2-2-2-1-1-2-2-3-4 0 0-2-1-2-1-1-1-1-1-2-2-2-2-3-3-3-4 0 0-1-2-1-2 0 0-1-1-1-1 0 0-2-1-2-1 0 0-1-1-1-1-1-2-1-2-3-3-1-1-1-1-2-3-1-1-1-1-3-2-1-1-1-1-2-3 0 0 0-1-2-1-1-1-2-2-3-5-2-1-2-3-3-4 0-1-1-1-1-2 0 0 0-2-1-2-2-1-2-2-3-2 0 0 0-2-1-2 0-1-2-1-2-1-1-1-2-2-3-4-2-1-3-2-4-4 0 0 0 0 0-1-2-1-3-2-3-2 0 0-1 0-1-2-1-1-3-2-4-2 0 0-1 0-1 0-2 0-3 0-5 1 0 0-2 0-2 0-2 1-6 3-11 4 0 0-1 0-1 1-2 0-3 1-4 1-2 0-2 0-3 2 0 0-1 0-1 0-1 0-3 1-3 1 0 0-1 0-1 0 0 0-1 0-1 1-2 0-3 2-4 2-1 0-1 0-3 1-1 0-2 1-2 1-1 0-3 1-4 1-1 0-3 2-4 2-1 0-2 1-4 1-1 0-2 1-2 1-3 2-4 2-7 3-1 0-2 1-2 1-3 1-4 1-7 1 0 0-1 0-1 0-1 0-1 0-2 2 0 0-2 0-2 0 0 0-1 0-1 0-1 0-1 0-3 1-2 1-6 1-9 3-1 0-2 0-2 0-1 0-3 0-3 0 0 0-1 0-1 0-1 0-4 0-5 1-1 0-1 0-3 0-1 0-1 0-2 0-1 0-1 0-3 0 0 0-1 0-1 0 0 0-1 0-1 0 0 0-2 0-2 0-1 0-3 0-5 0-10-1-18-7-21-16l40-152z m142 89c1 5 2 14 10 22 6 9 19 17 36 20 6 2 13 2 20 0 12-1 25-6 36-16 0 0-4 0-10-1-6 0-15-3-24-6-2 0-4-1-5-1-8-2-16-4-23-8-11-3-22-8-39-19-2 2-2 4-1 9z m8-116c0 0 1 0 0 0 1 0 1 0 1 0 39 10 61 33 73 52 10 18 13 34 13 34 0-17-3-30-7-43-16-52-63-70-72-73 0 0 0 0-1 0 0 0-1 0-1 0-12-2-83-12-126 62 3-2 44-53 120-32z m-111 119c17 6 31 4 41 0 11-4 17-10 20-14 3-4 3-7 3-8-19 1-32 0-42-3-11-2-20-3-29-6-9-2-17-5-23-8-7-2-11-5-11-5 8 25 26 39 41 44z"/>
<glyph glyph-name="centro-de-investigacion-aragon" unicode="&#120;" d="M484 76l-103 102c54 75 48 182-20 250-76 75-198 75-274 0-74-77-74-199 1-274 68-68 174-75 250-21l102-102c13-13 32-13 45 0 12 13 12 32-1 45z m-259 51c-89 0-162 73-162 162 0 90 73 163 162 163 90 0 163-73 163-163 0-89-73-162-163-162z m-10 137l19 0 0-20-19 0z m56 29c0-11 0-23-1-34-1-12-2-23-6-35-3-12-7-23-13-33-1-3-3-5-5-8-2-3-4-5-7-6-2-3-5-4-7-5-3-2-7-3-9-3-3 0-7 1-9 3-3 1-5 2-8 5-2 2-4 3-6 6-2 3-4 5-5 8-3 5-6 10-8 16-3 5-4 12-5 17-3 12-5 23-7 35-1 11-2 23-2 34 0 23 2 47 9 71 1 5 4 11 5 16 2 5 5 12 8 17 1 2 2 5 5 7 1 3 4 6 6 7 3 2 5 4 8 5 2 1 6 3 9 3 2 0 6-2 9-3 2-1 5-3 7-5 3-3 4-4 7-7 1-2 4-5 5-7 5-10 9-22 13-33 2-12 5-24 6-35 1-12 1-24 1-36z m0 0c0 12-1 23-2 35-1 11-4 23-7 34-1 5-3 12-5 17-2 5-5 10-7 15-2 3-3 5-6 8-1 2-3 4-6 6-4 4-9 7-15 7-5 0-11-3-14-7-3-1-4-4-5-6-2-3-3-5-6-8-5-10-9-20-11-32-1-5-3-11-4-16-1-6-1-12-3-17-1-12-1-23-1-35 0-11 0-23 1-34 2-12 3-23 7-35 2-11 6-21 11-32 2-2 3-5 6-7 1-3 3-4 5-7 3-4 9-6 14-6 5 0 10 2 15 6 3 1 4 4 6 7 2 2 4 5 6 7 2 5 5 11 7 16 3 5 4 11 5 16 3 12 6 23 7 35 1 10 2 22 2 33z m-14-33c-7-8-16-17-25-23-9-8-20-14-28-21-11-6-21-11-32-14-3-1-6-1-9-1-3 0-7-1-9 0-3 0-7 0-9 1-3 2-5 3-8 5-3 3-4 5-5 8-1 3-1 6-1 9 0 3 0 6 0 9 0 3 1 6 1 9 1 6 4 11 6 17 3 5 5 10 8 15 6 10 13 20 19 29 8 9 15 18 23 27 17 17 35 32 55 44 5 2 10 5 16 7 5 3 11 4 16 7 3 1 7 1 9 1 3 0 7 0 9 0 3 0 7-1 9-1 3-1 5-3 8-5 2-3 4-5 5-8 1-3 1-6 1-9 0-2 0-6 0-9 0-2-1-6-1-9-4-11-9-22-14-32-7-10-13-19-21-28-6-12-14-19-23-28z m0 0c8 8 16 16 23 25 8 9 14 20 20 30 2 5 5 10 7 15 3 5 4 10 5 17 2 2 2 5 2 9 0 2 0 5 0 9 0 5-3 11-7 15-1 3-7 4-13 4-2 0-5 0-9 0-2 0-5-1-7-1-12-3-22-9-31-14-5-3-10-7-14-9-5-4-9-7-14-11-9-7-18-15-26-23-7-7-15-16-23-25-7-9-14-18-19-28-6-11-11-21-14-31-1-3-1-5-1-8 0-2-2-5 0-9 0-5 1-11 5-15 4-4 9-5 15-6 3 0 5 0 9 0 3 0 5 1 9 1 5 1 12 4 17 5 5 2 10 5 15 8 10 5 19 12 30 19 5 7 14 15 21 23z m-66 0c7-8 16-16 25-23 9-8 20-14 30-19 5-3 10-6 15-8 5-3 10-4 17-5 2-1 5-1 9-1 2 0 5 0 9 0 5 0 11 2 15 6 4 4 5 9 5 15 0 3 0 5 0 9 0 3-1 5-1 8-3 11-9 22-14 31-7 10-13 19-19 28-8 9-16 18-23 25-8 8-17 16-26 23-5 4-9 8-14 11-5 4-9 6-14 9-10 6-21 11-31 14-2 1-5 1-8 1-2 0-5 1-9 0-5 0-11-1-15-5-4-4-5-9-6-15 0-3 0-6 0-9 0-3 1-6 1-9 1-6 4-12 5-17 3-5 5-10 8-15 5-11 13-20 19-30 5-6 13-15 22-24z m0 0c-8 8-17 16-23 25-8 9-14 20-21 29-6 10-11 20-14 32-1 2-1 5-1 9 0 2-1 6 0 9 0 2 0 6 1 8 1 3 3 6 5 8 3 3 5 4 8 5 2 2 6 2 9 2 2 0 6 0 9 0 2 0 6-2 9-2 6-1 11-4 16-6 6-3 11-5 16-8 20-11 38-27 55-43 8-9 16-17 23-27 8-9 14-19 19-30 3-5 5-10 8-15 2-5 4-12 6-17 1-2 1-6 1-9 0-2 0-6 0-9 0-2-1-6-1-9-1-2-2-5-5-7-3-3-5-4-8-5-2-2-6-2-9-2-2 0-6 0-9 0-2 0-6 2-9 2-11 4-21 9-32 14-10 6-19 13-28 20-9 10-18 18-25 26z m33 80c12 0 23 0 35-1 11-1 23-2 34-6 12-3 23-7 33-13 3-1 6-3 8-5 3-1 5-4 6-7 3-2 4-5 6-7 1-3 2-7 2-9 0-3-1-7-2-9-2-3-3-5-6-8-2-2-3-4-6-6-2-1-5-4-8-5-5-3-10-5-16-8-5-3-12-4-17-5-11-3-23-5-34-7-12-1-23-2-35-2-23 0-47 2-70 9-6 1-12 4-17 5-5 3-12 5-17 8-2 1-5 2-7 5-3 1-5 4-7 6-1 4-2 7-4 9-1 3-2 7-2 9 0 3 1 7 2 9 2 3 3 5 6 8 2 2 3 4 6 6 2 1 5 4 8 5 10 5 21 9 33 13 11 3 23 5 34 6 12 0 23 0 35 0z m0 0c-12 0-23-1-35-2-11-1-23-4-34-6-5-2-12-4-17-6-5-2-10-5-15-7-3-2-5-3-8-5-2-2-4-4-6-7-4-4-7-9-7-15 0-5 3-10 7-14 1-3 4-4 6-5 3-2 5-3 8-5 10-6 20-9 32-12 5-1 11-3 17-4 5-1 11-1 16-2 12-2 23-2 35-2 11 0 23 0 34 2 12 1 23 2 35 6 11 3 22 6 32 12 2 1 5 2 8 5 2 1 3 3 6 5 4 4 6 9 6 14 0 5-2 10-6 15-1 3-4 4-6 7-3 1-6 3-8 5-5 2-10 5-16 7-5 3-11 4-16 6-12 2-23 5-35 6-10 2-21 2-33 2z m23-49c0-13-10-23-23-23-13 0-23 10-23 23 0 12 10 23 23 23 13 0 23-11 23-23z m15 110c0-9-6-16-15-16-8 0-15 7-15 16 0 8 7 15 15 15 9 0 15-7 15-15z m63-194c0-8-7-15-15-15-9 0-16 7-16 15 0 9 7 16 16 16 8 0 15-7 15-16z m-177 27c0-8-6-15-15-15-8 0-15 7-15 15 0 9 7 16 15 16 9 0 15-7 15-16z"/>
<glyph glyph-name="centro-tecnologico" unicode="&#122;" d="M120 404l-62-145 55-145c0 0-17-44-17-44l-79 195 85 183c0 1 18-44 18-44z m208-147l11-30-18-48-18 46 14 41-14 32 22 48 19-50z m39-101l17-43c0 0-17-44-17-44l-18 41z m5 206l-17 46 17 39c0 1 18-44 18-44z m6 92l73-188-80-206 42 1 79 201-73 194z m-139-195l11-27-18-48-18 44 13 40-13 32 22 42 19-49z m39-99l16-45c0 0-16-43-16-43l-18 43z m5 198l-18 48 19 42c0 1 18-44 18-44z m119-93l-38-101-17-45-22-56-42 0 42 110 18 46 18 50-13 34-19 49-41 105 42 1 22-59 17-47z m-254-8l11-27-18-46-33 80 35 79 21-51z m56-143c0 0-17-44-17-44l-17 45 17 44z m7 290l-19-46-18 48 19 42c2 1 18-44 18-44z m100-140l-11-31-26-65-17-45-23-62-43 0 45 114 17 48 17 45-13 33-19 48-41 107 41 1 23-59 18-49 22-57z m-91 1l-10-28-27-71-17-44-23-59-43 0 43 112 18 46 18 48-13 32-19 50-41 106 41 1 23-60 18-47 22-60z"/>
<glyph glyph-name="direccion" unicode="&#70;" d="M253 484c-89 0-163-73-163-164 0-32 9-63 25-87l69-120 53-90 0 174c-62 9-108 62-108 126 0 69 57 126 127 126 70 0 127-56 127-126 0-64-48-118-110-126l0-175 52 91 68 116c18 26 27 58 27 91-3 91-76 164-167 164z"/>
<glyph glyph-name="educacion-continua" unicode="&#71;" d="M342 233l0-129-55 43c0 0 1 42 0 63 0 1 0 2 0 4l18 29c0 0-57 1-68 0l-7 9c8 8 12 21 8 36l62 0c33-13 42-55 42-55z m54 101c0-24-20-43-44-43-24 0-44 19-44 43 0 24 20 44 44 44 24 0 44-20 44-44z m96-46l-31-52-28 0c0 0-17-4-18-25-2-20 0-63 0-63l-55-43 0 128c0 0 9 42 41 55z m-297-84l0-88-38 30c0 0 0 28 0 43 0 4-1 7-2 9l13 22c0 0-50 0-50 0l-5 7c2 3 3 10 3 15l50 0c23-9 29-38 29-38z m38 72c0-8-4-15-9-21-5-5-13-9-20-9-17 0-30 13-30 29 0 17 13 30 30 30 11 0 21-7 26-17 2-3 3-6 3-12z m64-35l-18-30-3-6-19 0c0 0-11-3-13-17 0-14 0-43 0-43l-37-30 0 87c0 0 5 25 23 35 2 1 4 1 6 2l61 0z m-282-26l17-27 14 0c0 0 9-1 9-13 0-11 0-33 0-33l28-22 0 67c0 0-4 22-22 28z m98 23c0-6-3-11-5-14-6-5-12-8-18-8-13 0-23 11-23 23 0 13 10 22 23 22 12 0 23-10 23-23z m48-23l-13-22-3-6-14 0c0 0-9-1-9-13 0-11 0-33 0-33l-29-22 0 67c0 0 4 20 20 26 1 0 1 0 2 2l46 0z"/>
<glyph glyph-name="tutorias" unicode="&#73;" d="M443 355l0-264c-101 33-186 17-186 17-101 17-192-16-192-16l0 263c8 3 17 7 26 10l0-240c0 0 79 48 164 0 0 0 70 53 161 0l0 241c17-5 27-11 27-11z m-353-232l0 256 1 0c18 10 52 22 106 14 30-4 54-12 58-13 47 22 88 21 115 16 29-6 46-16 47-16l2 0 0-256-3 1c-46 27-87 26-113 20-28-7-46-20-46-20l-2 0c-44 25-86 23-113 18-29-6-50-18-50-18z m84 25c24 0 51-5 81-20 4 3 20 14 46 19 27 7 66 8 114-19l0 248c-4 3-21 11-46 16-26 5-68 6-114-16 0 0-26 9-58 13-29 4-72 5-104-13l0-248c7 4 25 12 49 17 9 2 19 3 32 3z m41 182c0-12-10-23-23-23-13 0-23 11-23 23 0 13 10 23 23 23 13 0 23-10 23-23z m-96-30l15-27 14 0c0 0 9-2 9-13 0-10 0-32 0-32l29-22 0 65c0 0-4 23-22 30l-45 0z m145 0l-16-27-14 0c0 0-9-2-9-13 0-10 0-32 0-32l-28-22 0 65c0 0 4 22 22 29z m83 11c0-11-9-19-19-19-11 0-20 8-20 19 0 11 9 19 20 19 10 0 19-8 19-19z m-81-27l13-23 12 0c0 0 7-1 7-10 0-9 0-27 0-27l23-19 0 55c0 0-4 19-18 24z m122 0l-13-23-11 0c0 0-8-1-8-10 0-9 0-27 0-27l-23-19 0 55c0 0 4 18 18 23l37 0z"/>
<glyph glyph-name="servicio-a-la-comunidad" unicode="&#74;" d="M385 200l-36 0 0-103-67 0 1 67-56 0 0-67-66 0 0 105-29 0 124 80z m55 96c0-16-12-28-28-28-15 0-28 12-28 28 0 15 13 28 28 28 16 0 28-13 28-28z m49-35l-21-33-17 0c0 0-12-3-12-16 0-14 0-40 0-40l-36-29 0 84c0 0 5 26 27 35l59 0z m-323 105l21-33 18 0c0 0 11-3 11-16 0-14 0-47 0-47l36 23 0 40c0 0-5 27-27 36l-59 0z m121 30c0-16-13-29-28-29-16 0-29 13-29 29 0 15 13 28 29 28 15 0 28-13 28-28z m62-30l-20-33-18 0c0 0-11-3-11-16 0-14 0-47 0-47l-36 21 0 41c0 0 5 26 27 35l58 0z m-212-70c0-16-13-28-28-28-16 0-28 12-28 28 0 15 12 28 28 28 15 0 28-13 28-28z m-104-35l21-33 18 0c0 0 11-3 11-16 0-14 0-40 0-40l36-29 0 84c0 0-5 26-27 35l-59 0z"/>
<glyph glyph-name="protecion-civil" unicode="&#75;" d="M253 465c-116 0-211-95-211-212 0-116 95-211 211-211 117 0 212 95 212 211 0 117-95 212-212 212z m2-398c-104 0-187 83-187 186 0 104 83 187 187 187 103 0 187-83 187-187 0-103-85-186-187-186z m0 96l-154 0 77 133 77 133 153-266z"/>
<glyph glyph-name="orgullo-aragon" unicode="&#76;" d="M310 221l0-161-69 55c0 0 0 82 0 83l21 38-92 0c7 6 18 32 5 55l84 0c41-16 51-70 51-70z m69 127c0-30-25-55-55-55-31 0-55 25-55 55 0 31 24 55 55 55 30 0 55-24 55-55z m119-57l-38-66-35 0c0 0-22-5-23-30-1-27 0-80 0-80l-69-55 0 161c0 0 10 53 51 70z m-489-63l27-45 24 0c0 0 14-3 16-20 1-18 0-54 0-54l46-37 0 110c0 0-8 36-35 46z m159 40c0-11-4-21-12-27-6-7-15-11-25-11-21 0-38 17-38 38 0 20 17 37 38 37 15 0 26-9 33-21 2-5 4-11 4-16z m80-40l-21-37-6-8-24 0c0 0-14-3-15-20-2-18 0-54 0-54l-46-37 0 110c0 0 6 30 28 43 2 2 4 3 6 3z m164 124l4-10c-5-3-13 0-13 0l4 10c-3 1-4 3-4 5 0 3 1 4 3 5l0 37-27-16c-12 18-31 30-54 30-23 0-43-11-54-30l-35 23 89 55 91-55-3-3c0 0 0-1 0-1l0-40c2-1 3-2 3-5-1-2-3-5-4-5z"/>
<glyph glyph-name="intercambio-academico" unicode="&#77;" d="M115 178c17 6 14 4 18 36 4 28-4 18 19 33 21 14 48 40 63 51 9-11 27-78 38-97 4 4 8 6 12 9 6 5 6 4 5 15-2 25-8 100-8 114 14 13 55 45 62 59 2 8 6 19-4 22-22 1-51-30-73-49-9-7-8-5-19-2-13 2-104 25-109 24-3-1-14-12-17-13 7-5 14-10 23-14l45-27c8-4 17-9 23-14-10-8-20-17-32-25-53-44-30-43-68-41-20 1-30 5-35-13 35-14 52-34 57-68z m-103-113c7 7 16 13 25 18 9 5 18 10 28 16 9 5 19 9 30 12 10 4 19 8 29 11 5 1 10 2 16 3 5 2 10 3 15 4 10 3 20 4 31 5 10 2 20 3 32 3 10 1 21 1 32 1 5 0 10 0 15 0 5 0 10-1 15-1 5 0 11-1 16-1l7-2c2 0 3 0 4 0l4-1c21-4 41-9 61-15 21-7 40-14 59-23 20-9 37-19 55-31-37 19-75 36-116 47l-5 4c-3 1-5 1-8 3-5 1-10 2-15 4-10 2-21 3-31 6-5 1-10 1-15 3-5 0-11 1-16 1-5 0-10 1-15 1-5 0-10 0-15 0-21 0-43-1-63-4-21-2-41-6-62-13-20-5-39-12-58-21-6-3-9-4-15-7-5-2-8-5-14-7-5-3-9-5-14-8-4-3-9-5-12-8z m426 82c2 17 10 26 27 32-3 8-8 7-17 7-18 0-6-2-31 19-5 4-10 9-15 11 2 3 8 5 10 7l21 13c3 2 7 3 10 6-1 1-7 5-8 6-2 2-45-10-51-11-5-1-5-3-9 1-10 9-24 23-35 22-3-1-2-7-1-10 3-7 22-22 28-27 0-7-2-43-3-53 0-5-2-4 2-6 3-1 4-3 5-4 5 9 13 40 18 45 8-5 21-17 30-25 10-7 6-2 9-15 3-17 2-15 10-18z"/>
<glyph glyph-name="simbolo-de-la-sumision-del-directorio" unicode="&#79;" d="M464 512l-416 0c-26 0-48-22-48-48l0-416c0-26 22-48 48-48l416 0c26 0 48 22 48 48l0 416c0 26-22 48-48 48z m16-464c0-9-7-16-16-16l-416 0c-9 0-16 7-16 16l0 416c0 9 7 16 16 16l416 0c9 0 16-7 16-16z m-330 352l-43 0c-6 0-10-5-10-10l0-44c0-5 4-10 10-10l43 0c6 0 11 5 11 10l0 44c0 5-5 10-11 10z m35-17l230 0 0-30-230 0z m-35-95l-43 0c-6 0-10-5-10-10l0-44c0-5 4-10 10-10l43 0c6 0 11 5 11 10l0 44c0 5-5 10-11 10z m35-17l230 0 0-30-230 0z m-35-95l-43 0c-6 0-10-5-10-10l0-44c0-5 4-10 10-10l43 0c6 0 11 5 11 10l0 44c0 5-5 10-11 10z m3-54c0-1-1-2-3-2l-43 0c-1 0-2 1-2 2l0 44c0 1 1 2 2 2l43 0c2 0 3-1 3-2z m32 37l230 0 0-30-230 0z"/>
<glyph glyph-name="tiempo" unicode="&#80;" d="M256 512c-141 0-256-115-256-256 0-141 115-256 256-256 141 0 256 115 256 256 0 141-115 256-256 256z m0-495c-132 0-239 107-239 239 0 132 107 239 239 239 132 0 239-107 239-239 0-132-107-239-239-239z m0 444c-5 0-9-4-9-9l0-196-128 0c-4 0-8-4-8-9 0-4 4-8 8-8l137 0c5 0 9 4 9 8l0 205c0 5-4 9-9 9z"/>
<glyph glyph-name="acceso-fesar" unicode="&#82;" d="M461 31l-395 0c-9 0-16 7-16 16l0 111 32 0 0-95 363 0 0 360-363 0 0-100-32 0 0 116c0 9 7 16 16 16l395 0c9 0 17-7 17-16l0-392c0-9-8-16-17-16z m-404 214l0-10c0-7 5-13 12-13l152 0-49-48c-2-2-3-5-3-8 0-3 1-7 3-9l8-7c2-3 5-4 8-4 4 0 7 1 9 4l82 81c2 3 3 6 3 9 0 3-1 7-3 9l-82 81c-2 3-5 4-8 4-3 0-7-1-9-4l-7-7c-3-3-4-6-4-9 0-3 1-6 4-8l47-48-151 0 0 0c-7 0-12-6-12-13z"/>
<glyph glyph-name="contacto-de-emergencia" unicode="&#86;" d="M196 418c10-3 13-11 15-20 4-17 8-34 12-51 0-3 0-6 0-8 0-9-3-14-11-17-5-2-11-4-16-5-6-2-9-6-11-11-1-7-1-14 1-20 13-39 36-71 67-98 7-5 14-10 21-14 4-3 10-3 15-3 4 1 7 3 9 6 4 4 7 8 10 13 6 9 13 11 23 7 5-2 11-5 16-9 10-5 20-11 30-16 2-1 5-3 7-4 6-5 12-10 12-19 0-2 0-4 0-6-3-5-4-10-7-15-12-21-29-34-53-37-5-1-9 0-14-1-4 1-8 1-12 2-4 1-9 2-13 4-22 8-41 21-58 37-21 18-39 39-55 61-21 27-39 55-52 87-8 17-13 35-15 54 0 6 0 11 0 17 0 3 1 7 1 11 1 1 1 1 1 3 7 27 25 44 52 51 6 1 13 1 19 2 2-1 4-1 6-1z"/>
<glyph glyph-name="revision-de-estudios" unicode="&#87;" d="M473 344l0-268c-104 34-189 16-189 16-103 18-195-15-195-15l0 267c8 4 17 8 26 11l0-245c0 0 81 49 167 0 0 0 71 54 164 0l0 245c17-6 27-11 27-11z m-361-239l0 263 2 1c34 19 79 18 111 14 30-4 54-12 59-14 93 42 163 0 164 0l1-1 0-263-4 2c-90 53-161 1-161 0l-2-1-1 1c-84 47-164 0-165 0z m88 29c25 0 53-5 82-21 5 3 21 14 47 20 26 6 68 7 114-18l0 250c-10 6-74 37-157-1l-1 0-1 0c-1 1-103 36-166 1l0-250c7 3 24 11 48 16 10 2 21 3 34 3z m84 216c2-17 2-34 2-51 1-8 1-17 1-26l0-50c0-9-1-17-1-26 0-17-1-34-2-51-1 17-1 34-1 51-1 9-1 17-1 26l0 50c0 9 1 18 1 26 0 17 0 34 1 51z m-253 38c0-6 3-12 7-16l134-134c0 0 1-1 1-1 8-7 45-19 51-20-1 3-3 11-6 20-3 11-7 22-11 27 0 1 0 1-1 1l-22 22-56 57-59 59c-4 4-10 7-16 7-5 0-11-3-15-7-4-4-7-9-7-15z m147-149l24 23 9-25 3-7-4-4-28 11z"/>
<glyph glyph-name="transprencia" unicode="&#88;" d="M403 79l-291 0 0 348 291 0z m-286 5l281 0 0 338-282-1z m263 265l-243 0 0 27 243 0z m-238 5l233 0 0 17-233 0z m236-45l-241 0 0 27 241 0z m-237 5l232 0 0 17-232 0z m239-47l-243 0 0 27 243 0z m-238 5l233 0 0 17-233 0z m238-47l-243 0 0 27 243 0z m-238 6l233 0 0 17-233 0z m236-49l-241 0 0 27 241 0z m-236 5l231 0 0 17-231 0z m238-45l-242 0 0 27 242 0z m-237 5l232 0 0 17-232 0z m295 121l-42 41c23 32 20 75-8 102-31 31-81 31-112 0-31-30-31-81 0-111 28-28 71-31 102-9l42-41c5-5 13-5 18 0 5 4 5 13 0 18z m-106 21c-37 0-67 30-67 67 0 37 30 66 67 66 37 0 67-29 67-66 0-37-30-67-67-67z"/>
<glyph glyph-name="servicios-medicos" unicode="&#90;" d="M466 292l0-90c0-15-12-27-26-27l-118 0 0-116c0-15-12-27-27-27l-89 0c-15 0-27 12-27 27l0 115-118 0c-14 0-26 13-26 27l0 91c0 14 12 27 26 27l117 0 0 117c0 15 12 27 27 27l90 0c15 0 27-12 27-27l0-117 117 0c15 0 27-13 27-27z"/>
<glyph glyph-name="como-llegar" unicode="&#85;" d="M248 489c-54 0-98-44-98-98 0-20 5-38 15-53l0 0 41-73 32-54 0 106c-37 5-65 36-65 75 0 42 34 76 76 76 42 0 76-35 76-76 0-39-29-71-66-76l0-105 31 54 41 71c10 16 16 35 16 55 0 54-44 98-99 98z m253-466l-492 0 137 215 226 0z m-477 8l464 0-120 199-218 0z m469-6l-101 30-76 0 0 33-69 0-62 54 131 24-71 22 0 23 6 0 0-19 89-27-142-27 51-45 73 0 0-32 71 0 102-31z"/>
<glyph glyph-name="mapa-de-la-fes" unicode="&#84;" d="M243 478c-54 0-98-44-98-98 0-20 6-38 15-53l0 0 42-72 31-54 0 105c-37 6-65 37-65 75 0 42 34 76 75 76 42 0 76-34 76-76 0-38-29-70-66-75l0-105 31 54 41 70c10 16 16 35 16 55 0 54-43 98-98 98z m-102-432l-135 29 10 193 118-39 110 42 114-42 128 42 18-202-147-22 0 1-113 34z m-128 34l128-27 103 36 1-1 113-33 138 20-17 186-121-40-114 42-109-42-112 37z m118 144l7 1 2-176-7 0z m223 0l7 0 0-174-7 0z"/>
<glyph glyph-name="actididades-deportivas" unicode="&#48;" d="M433 402c0-24-19-42-42-42-23 0-42 18-42 42 0 23 19 42 42 42 23 0 42-19 42-42z m-186-11l0-59 24-13c0 0 12-12 3-30-10-17-119-205-119-205l61 0 113 196c0 0 14 40-7 67z m261-99l-51-28-23 13c0 0-16 6-27-12-11-17-105-180-105-180l-60 0 130 226c0 0 27 31 61 25z m-285 40c-11-1-23-2-34-2-11 0-22-1-33-1-11 0-22 1-33 1-11 0-23 1-34 2 11 1 23 2 34 3 11 0 22 0 33 0 11 0 22 0 33 0 12-1 23-2 34-3z m22-37c-11-1-22-1-33-2-11 0-23-1-34-1-11 0-22 1-33 1-11 1-22 1-33 2 11 2 22 2 33 3 11 0 22 0 33 0 11 0 23 0 34 0 11-1 22-1 33-3z m-16-49c-11-1-23-2-34-3-11 0-22 0-33 0-11 0-22 0-33 0-11 1-22 2-33 3 11 1 22 2 33 2 11 0 22 1 33 1 11 0 23-1 34-1 11 0 22-1 33-2z m-31-49c-11-1-22-2-33-2-11-1-22-1-33-1-11 0-23 0-34 1-11 0-22 1-33 2 11 1 22 2 33 2 11 0 23 1 34 1 11 0 22-1 33-1 11 0 22-1 33-2z m-30-45c-11-1-23-2-34-2-11-1-22-1-33-1-11 0-22 0-33 1-11 0-23 1-34 2 11 1 23 2 34 2 11 1 22 1 33 1 11 0 22 0 33-1 12 0 23-1 34-2z m-31-67c-11-1-22-2-33-2-11-1-22-1-33-1-11 0-23 0-34 1-11 0-22 1-33 2 11 1 22 2 33 2 11 1 23 1 34 1 11 0 22 0 33-1 11 0 22-1 33-2z m87 286c-11-1-23-2-34-2-11-1-22-1-33-1-11 0-22 0-33 1-11 0-23 1-34 2 11 1 23 2 34 2 11 1 22 1 33 1 11 0 22 0 33-1 11 0 23-1 34-2z"/>
<glyph glyph-name="arquitectura" unicode="&#49;" d="M193 126l-117 1 77 283 40 21z m265-53l-28 14-388 0 0 20 390 0 26-10z m-160 218l-47 21-47 0 0 33 47 0 47-23z m-1-54l-47 21-47 0 0 33 47 0 47-24z m0-56l-47 22-47 0 0 32 47 0 47-23z m0-54l-47 22-47 0 0 32 47 0 47-23z"/>
<glyph glyph-name="derecho" unicode="&#50;" d="M334 287l24 72 24-72z m-137-195c-2 1-4 2-6 2-1 1-3 1-4 1l-3 1c-1 0-2 0-3 0-2 1-3 1-4 1-2 0-5 0-7 1-9 1-18 1-28 1-2 0-5 0-7 0l-7 0c-5 0-9-1-14-1-5 0-10 0-14-1-5 0-10 0-15 0 5 1 10 2 14 4 5 1 10 1 14 2 3 0 5 1 7 1l4 0c1 0 2 0 4 0 4 1 9 1 14 1 10 0 19-1 29-3 1 0 2 0 3 0l4-1c1 0 2-1 3-1 1 0 3-1 4-1l3-2c1 0 2-1 3-1 2-1 3-1 4-2 1 0 2-1 2-2z m9-18c-12 2-24 3-35 4-3 0-6 1-9 1-3 0-6 0-9 0l-9 1-9 0-9 0c-3 0-6 0-9 0l-9 0c-1 0-3 0-4 0l-5 0c-6 0-11-1-17-1-3 0-7-1-9-1-3 0-6 0-9 0 3 1 5 1 9 2 2 1 5 1 9 2 6 1 11 2 17 2 3 1 6 1 9 1l9 1c3 0 6 0 9 0l5 0c1 0 3 0 4 0l9 0c4-1 6-1 10-1 3 0 6-1 8-1 2 0 3 0 5-1l4 0c12-2 24-5 35-9z m9-19c-7 2-14 3-21 4-7 2-14 2-21 3-7 1-14 2-21 3-7 0-14 1-21 1-7 0-14 0-22 0-7 0-14 0-21-1-14-1-28-3-42-5 7 2 14 5 21 6 3 1 7 2 10 2 2 0 4 1 6 1 1 0 3 0 5 1l5 1c2 0 4 0 5 0l3 0 2 1 6 0c7 0 14 0 21 0 7 0 15-1 22-2 7-1 14-2 21-3 7-1 14-3 21-5 7-2 14-4 21-7z m56 37c1 0 2 1 3 2 1 0 2 1 4 1 1 1 2 1 3 1l3 1c5 2 10 3 15 3 9 2 19 2 28 1 5 0 10 0 15-1 1 0 2 0 3 0l4-1c2 0 5-1 7-1 5-1 9-2 14-4 5-1 9-2 13-4-4 0-9 1-14 1-4 1-9 1-14 2-4 0-9 1-14 1l-7 1c-2 0-5 0-7 0-9 1-19 1-28 1-5-1-9-1-14-1l-3-1c-1 0-3 0-4 0-2-1-4-2-7-2z m-4-19c11 4 23 6 35 8l5 1c1 0 3 0 4 0 3 0 6 0 9 0 3 0 6 1 9 1l10 0c1 0 3 0 4-1l4 0c4 0 6 0 10 0l8-1c3-1 6-1 9-2 6 0 12-2 18-3 2 0 3-1 5-1 1-1 2-1 4-1 3-1 6-2 9-3-4 0-6 1-9 1-3 0-6 1-9 1-6 0-12 1-18 1-3 1-6 1-9 1l-9 1c-3 0-6 0-9 0l-4 0c-2 0-3 0-4 0l-9 0c-3 0-6 0-9 0-3 0-6 0-9 0-3 0-6 0-9 0-12 0-24-1-36-3z m-9-19c7 3 14 5 21 6 7 2 14 3 21 5 7 1 14 2 21 2 7 1 14 1 21 1 8 0 15 0 22-1l5 0c2 0 4 0 5-1 2 0 4 0 6 0l5-1c2 0 3 0 5-1 2 0 3-1 5-1 4-1 7-2 11-3 6-1 13-4 20-6-14 3-28 5-42 6-7 1-14 1-21 2-7 0-14 0-21 0-7 0-14 0-21-1-8 0-15-1-22-1-7-1-14-2-21-3-6 0-13-2-20-3z m23 347c-14 0-31 14-31 14l0 45c0 6 4 40 4 40l-37 0c0 0 5-34 5-40l0-45c0 0-17-14-31-14l-77 0 0-8 244 0 0 8z m-89-21l0-28 1-11c0-5 13-120-1-188-7-33 39-102 39-102l-1 329z m87 0l0-28-1-11c0-5-13-120 1-188 7-33-39-102-39-102l1 329z m12 0l67 0 0-8-67 0z m-154-93l-24 72-24-72z m43 85l-67 0 0 8 67 0z m-148-333l415 0 0-13-415 0z"/>
<glyph glyph-name="diseno-industrial" unicode="&#51;" d="M423 331c-9 34-29 65-55 88-26 25-58 40-93 44-11 2-21 3-32 3-60 0-112-27-147-69l1 0 0-287c37-51 86-68 145-68 90 0 165 60 183 140 7 23 11 47 11 73 0 27-4 52-13 76z m-182-263c-51 0-97 18-125 57l0 164 22-19 0-128c21-30 65-48 105-48 64 0 121 39 155 91-18-67-81-117-157-117z m-126 247l0 43 23-18-1-44z m126-195c-32 0-69 10-86 36l0 105 23 21 0-107c13-15 42-30 66-30 76 0 138 67 138 138 0 70-62 127-138 127-43 0-80-18-106-46l-24 19c30 36 76 59 127 59 89 0 162-70 162-156 0-93-72-166-162-166z m11 230c-35-2-68-32-97-58l0 51c25 25 50 40 87 40 59 0 108-42 117-97-14 32-58 67-107 64z m96-92c-1-27-24-64-69-76-31-9-63-5-78 11l0 95c12 14 29 30 60 33 35 3 79-37 87-63z"/>
<glyph glyph-name="comunicacion-y-peridismo" unicode="&#53;" d="M183 174l0-156 128 0 0 156z m61-123l-49 0 0 7 49 0z m0 17l-49 0 0 8 49 0z m0 18l-49 0 0 7 49 0z m0 19l-49 0 0 7 49 0z m0 22l-49 0 0 8 49 0z m56-80l-48 0 0 8 48 0z m0 19l-48 0 0 8 48 0z m0 15l-48 0 0 8 48 0z m0 14l-48 0 0 39 48 0z m0 51l-105 0 0 15 105 0z m70 59l-243 0 0 125 243 0z m-235 8l227 0 0 109-227 0z m87-4l50 0 0-12-50 0z m-32-15l112 0 0-7-112 0z m63 302l-1-12c0 0-56 2-74-54l-13 4c0 0 16 61 88 62z m-64-72c0 0 11 45 66 46l-1-13c0 0-38 1-52-37z m66 20c-33 0-41-29-41-29l12-4c0 0 7 20 28 21z m6-72c0 0-21 1-21 22 0 25 25 27 25 27l3 68c101-20 82-147-7-147-15 0-43 28-56 43-11 12-27 17-43 13 0 0 0 0-1 0-3-1 11 19 23 14l51-17c0 0 1-30 25-30 25 0 33 16 33 25 0 9-4 24-19 24-16 0-19-11-19-20 0 0 5-2 5-1 0 19 27 20 27 0-1-22-26-21-26-21"/>
<glyph glyph-name="ingenieria-civil" unicode="&#54;" d="M469 133l-251 0-9-23 269 0z m-81 136c0-12-12-27-18-43-8-21-13-42-13-64l-5 0c0 22 5 44 13 65 5 15 28 40 12 51-8 6-21 10-32 10-1 0-1 0-2 0 0 0-1 0-1 0-11 0-24-4-32-10-17-11 6-36 12-51 7-21 13-43 13-65l-5 0c0 22-6 43-13 64-5 14-20 31-19 43-42-20-71-68-73-129l236 0c-2 61-31 109-73 129z m-124-8c21 23 49 37 81 37 35 0 67-18 88-47l0 95c0 6-3 16-9 17l-114-1c-5 0-4-5-4-14l1-33-34 37c-1 1-3 1-4 0l0-1-10 11c0 0 0 0-1-1l-30 34c1 2 1 3 1 4 0 0 0 1 0 2-1 2-2 4-3 5l-27 21c0 6 1 10 0 11-2 2-4 3-6 3-3 1-6 0-9-2l-30-26c-1-2-2-3-2-5-1-1-1-2-1-3 0 0 0-1 1-1l-31-40c0-1 0-2 2-3l0 0-5-7c0 0 0-1 0-1l-19-26c-1 1-3 1-4 0-3-1-5-3-6-6l-13-37c-9 2-20-4-23-10 0 0-18-45-18-46-1-3-1-9 0-12 8-32 68-50 68-50l2 7-17 11c0 0 4 12 7 19l21 50c2 7 4 12-1 16l52 80 0-1 20 30c0 0 0-1 0-1 0-1 1-2 1-3l76-113z m-157 62c-1 1-2 2-2 2-1 0-1 0-1 1l18 24c1 0 1 0 1 0l5 7c1 0 2 0 2 0l29 38c1-1 3-3 4-4-9-11-46-57-56-68z m117 64l28-31c0 0 0-1 0-1l9-10c0-1 0-3 0-3l38-42c-1 0-2-1-3-1 0 0-2-2-4-4-8 9-58 72-72 87 2 2 3 4 4 5z"/>
<glyph glyph-name="relaciones-internacionales" unicode="&#55;" d="M372 345c0 0-2 3-5 4-3 1-8-1-8-1 0 0 1-4 6-5 4-2 7 2 7 2z m-3 7c0 0 0 4-2 5-3 2-8 3-8 3 0 0 0-4 3-7 3-3 7-1 7-1z m1 17c0 0 2 2 1 4-1 2-4 5-4 5 0 0-2-3-1-6 2-3 4-3 4-3z m3 10c0 0 1 2 1 4-1 2-4 4-4 4 0 0-1-2 0-5 1-2 3-3 3-3z m0-35c0 0-2 3-1 6 2 3 7 6 7 6 0 0 2-4 0-9-2-3-6-3-6-3z m-3 9c0 0-2 3 0 6 1 3 6 5 6 5 0 0 1-4-1-8-2-3-5-3-5-3z m2 20c0 0-1 2 1 3 1 2 5 3 5 3 0 0 0-3-2-5-1-2-4-1-4-1z m3 8c0 0-1 3 0 4 1 2 4 3 4 3 0 0 1-2 0-5-2-2-4-2-4-2z m-1 8c0 0 1 2 0 3-2 2-5 2-5 2 0 0 0-2 2-4 1-2 3-1 3-1z m1 3c0 0-1 2-1 3 1 2 3 3 3 3 0 0 2-2 0-4-1-2-2-2-2-2z m-4 8c0 0-2 0-3 3-2 2-2 5-2 5 0 0 3-1 4-3 2-2 1-5 1-5z m8-60c-3 0-8 2-10 9-1 7 0 13 3 24 0 1 0 2 1 4 3 12-3 24-3 24l2 1c1 0 7-13 3-26 0-1 0-3-1-4-2-10-4-17-2-23 2-6 7-6 7-6z m-162-68c2-1 4-2 5-2-8-6-16-11-25-16-1 0-2 0-2 0-80 11-27 133-27 133 0 0 9-31 29-55-6-20-6-43 20-60z m46-91c-61-1-145 36-145 36 0 0 44 13 85 35 9 4 17 9 25 15 13-7 23-14 30-22 0 0 1 0 1-1 1-1 1-1 2-2 1-1 1-2 2-2 0-1 1-1 1-2 1 0 1-1 2-2 4-6 8-12 10-18 0 0 0-1 0-1 2-8 3-15 3-20 0-1 0-1 0-1 0-1 0-2 0-2 0-1 0-1-1-2 0-7-3-11-15-11z m112 187c0 0-23 7-33-78-2-15 0-25-7-44 0 18-5 34-45 63-5 3-9 7-13 11 1 1 1 3 1 4 18 78 97 44 97 44z m-46-139c-2-6-5-11-7-16-11-16-29-26-36-27-1 0-3 1-2 2 0 2 0 4 0 6 2 16-1 48-50 75-2 1-4 2-5 2-29 15-32 40-24 65 10 35 41 70 41 70 0 0-6-54 28-90 4-4 8-8 13-11 40-30 47-56 42-76z m-317-151c8 7 17 13 26 19 9 6 19 11 28 16 10 5 19 9 29 13 10 4 20 8 31 11 5 1 10 3 15 4 5 2 11 3 16 4 10 3 21 4 32 6 10 2 21 3 32 3 10 1 21 1 32 1 6 0 11 0 16-1 6 0 11 0 17-1 5 0 10-1 15-2l9-1c1 0 2 0 3 0l4-1c22-4 42-9 63-16 20-6 41-14 60-24 19-9 38-19 56-31-38 20-77 37-118 49l-7 2c-3 1-6 1-8 2-5 1-10 3-15 4-11 2-21 4-31 6-6 1-11 2-16 2-5 1-11 2-16 2-5 1-10 1-16 1-5 0-10 1-16 1-21 0-42-1-63-4-21-2-42-7-62-12-20-6-40-13-60-22-5-2-9-4-14-7-5-2-10-4-14-7-5-3-10-5-14-8-5-3-10-6-14-9z"/>
<glyph glyph-name="pedagogia" unicode="&#57;" d="M132 324l41 0 0-167-41 0z m89 0l42 0 0-167-42 0z m97 0l41 0 0-167-41 0z m-77 123l-182-110 374 0z m14-87l-35 0 31 23-32 25 36 0 0-5-21 0 25-20-24-17 20 0z m-180-228c14 3 28 5 42 6 14 1 29 1 43 1 7 0 14-1 22-2 7-1 14-2 21-4 7-1 14-3 20-6 7-2 14-5 20-8l-2 0c1 1 3 2 5 3 2 1 3 2 5 2 4 2 7 3 11 5 7 2 14 5 22 7 8 1 15 3 23 4 2 0 4 1 5 1l6 0c4 1 8 1 12 1 4 0 8 0 11 0 4 0 8 0 12 0 7-1 15-2 23-3 15-2 30-7 44-12-15 4-29 8-45 10-7 1-15 1-22 1-4 1-8 0-12 1-4 0-7-1-11-1-15-1-30-3-45-7-7-2-14-4-21-7-4-1-7-3-11-4-2-1-3-1-5-2-2-1-3-2-5-3l-1-1-2 1c-6 3-12 6-19 8-2 1-3 1-5 2-1 0-2 0-3 1l-2 0c-2 1-4 1-5 2l-5 1c-14 3-28 5-42 6-7 1-14 1-21 1-7 0-14 0-21 0-14-1-28-2-42-4z m-31-23c16 4 33 7 50 9 16 2 33 3 50 2 8 0 17 0 25-1 9 0 17-1 25-3 9-1 17-3 25-5 8-3 16-5 24-9l-2 0c4 2 9 4 13 5 4 1 9 3 13 4 9 2 17 4 26 6 9 1 18 2 27 3 5 1 9 1 14 1l7 0c2 0 4 0 6 0 18 1 36-1 54-3 18-3 36-8 52-13-17 4-35 8-52 10-2 0-4 0-7 1-2 0-4 0-6 0-5 1-9 1-13 1-5 0-9 0-14 1-2 0-4 0-7 0l-6 0c-18-1-36-3-53-6-9-2-18-4-26-6-4-1-9-2-13-4-4-1-8-3-12-5l-1 0-1 0c-8 4-16 6-24 9-7 2-16 4-24 5-8 2-16 3-24 4-9 0-17 1-25 1-17 1-34 0-50-1-18-1-34-3-51-6z m-19-17c18 4 36 7 55 9 18 2 36 3 55 2 9 0 18 0 27-1 9 0 18-1 27-3 10-1 18-3 28-5 8-3 17-5 26-9l-2 0c5 2 10 4 14 5 5 1 10 2 15 4 9 2 19 4 29 6 9 1 19 2 29 3 5 0 10 1 14 1l8 0c2 0 5 0 7 0 20 0 39-1 59-4 19-3 39-6 57-12-19 4-38 8-58 10-2 0-5 0-7 0-2 1-5 1-7 1-5 0-10 1-15 1-5 0-10 0-15 0-2 0-5 0-7 0l-7 0c-19 0-39-2-58-5-10-2-19-4-29-6-4-1-9-3-14-4-4-1-9-3-13-5l-1 0-1 0c-9 4-17 6-26 9-9 2-18 4-27 5-9 1-18 3-27 3-9 1-18 2-27 2-18 1-36 0-55-1-18-1-36-3-54-6z"/>
<glyph glyph-name="ingenieria-mecanica" unicode="&#33;" d="M405 410l22 32-14 14-32-21c-5 3-11 6-17 8l-7 38-19 0-8-37c-6-1-12-4-17-7l-32 21-14-14 21-31c-4-5-6-11-8-17l-37-7 0-20 37-7c1-6 3-12 6-17l-21-32 13-14 32 20c5-3 11-5 17-7l7-37 19 0 8 36c6 2 12 4 17 7l32-21 14 13-21 31c4 6 7 11 8 17l38 8 0 19-37 8c-1 6-4 12-7 17z m-59-62c-17 0-30 13-30 29 0 16 13 29 30 29 16 0 29-13 29-29 0-16-13-29-29-29z m-133-153l-10 41c6 5 11 10 15 15l43-6 8 20-37 23c1 7 1 14 0 21l35 26-9 20-41-10c-5 6-10 11-15 15l6 43-20 8-23-37c-7 1-14 1-21 0l-25 35-21-9 10-41c-6-5-11-9-15-15l-43 7-7-21 35-23c0-7 0-14 1-21l-36-26 10-20 41 10c4-6 9-11 15-15l-7-43 21-8 22 37c7-1 14-1 21 0l26-35z m-44 72c-16-8-36 0-44 17-8 16 0 36 17 44 16 8 36 0 44-17 7-16 0-36-17-44z m224-208l-8 41c6 4 11 9 16 15l42-9 9 20-35 24c1 8 2 15 1 22l37 23-8 21-42-8c-4 6-9 12-14 16l8 43-20 9-24-35c-7 1-14 1-21 0l-24 37-21-8 8-42c-6-4-11-9-16-14l-43 9-8-21 35-24c-2-7-2-14-1-21l-37-24 8-21 42 8c4-6 9-11 14-16l-9-42 21-9 24 35c7-2 14-2 21-1l24-37z m-40 74c-17-7-36 2-43 19-7 17 1 37 19 43 17 7 36-1 43-18 7-18-2-37-19-44z"/>
<glyph glyph-name="ingenieria-industrial" unicode="&#34;" d="M303 238l0-44-3-3c-5-3-11-6-17-7-1 14-14 26-29 26-15 0-27-12-29-27-6 2-12 5-18 8l-2 3 0 80 9-6 0 39c0 0 3 2 7 2 4 0 8-2 8-2l0-50 6-4 0 13 34-21 0 11z m92 8c2 13 2 27 0 40l66 47-17 38-78-18c-8 11-17 20-28 28l13 80-38 14-42-67c-13 2-26 2-40 0l-47 66-37-17 18-77c-11-8-21-18-28-28l-80 12-15-38 67-42c-1-13-1-26 1-39l-66-48 17-37 77 17c8-10 27-25 27-25l58 0c19-9 24-25 26-31 3 0 6 0 9 0 2 6 7 22 26 31l58 0c10 8 19 17 26 27l80-13 14 39z m-60-36l13-10-29-9c-10-9-23-17-37-21 0-1 0-1-1-1-4-11-15-18-27-18-11 0-21 6-26 16 0 0 0 0 0 0-21 5-40 17-54 32l-12-8-1 27c-8 15-12 31-12 48 0 24 8 46 22 63l-10 9 27 8c17 14 39 22 63 22 27 0 52-11 70-28l12 8 4-27c10-16 16-35 16-55 0-20-7-40-18-56z m-91-96l0-74-31 24c0 0 0 32 0 39 0 7-10 10-10 10l-15 0-16 28-1 2 51 0c17-8 21-22 22-27 0-1 0-2 0-2z m93 29l-18-30-15 0c0 0-10-3-10-10 0-7 0-39 0-39l-31-24 0 75c0 0 0 0 1 2 1 5 5 19 22 27l51 0z m-58 37c0-4-1-7-2-9-4-9-12-15-22-15-10 0-18 5-22 13-1 3-2 7-2 11 0 1 0 2 0 2 1 12 11 22 23 22 13 0 23-10 24-21 0-1 1-2 1-3z m-94 135l-25 23 1 2 22-20 4 28 2 0z m153 4l-32 10 27 21 2-2-23-18 27-9z m-16-131l-3 0 3 33 26-22-1-2-23 19z m-160 2l-1 2 24 16-27 10 1 3 32-12z"/>
<glyph glyph-name="ingenieria-en-computacion" unicode="&#35;" d="M321 418l0-56c49-22 84-72 84-130 0-79-64-143-143-143-79 0-142 64-142 143 0 59 36 110 87 132l0 55c-80-24-138-98-138-186 0-107 87-194 195-194 107 0 194 87 194 194-1 87-58 161-137 185z m-28-90l0 134c0 6-4 11-10 11l-37 0c-6 0-11-5-11-11l0-134c-41-13-70-51-70-96 0-55 44-99 99-99 55 0 100 44 100 99 0 45-30 83-71 96z m-29-169c-41 0-74 32-74 73 0 30 19 56 45 67l0-55c0-6 5-11 11-11l37 0c6 0 11 5 11 11l0 55c25-12 43-38 43-67 0-41-33-73-73-73z"/>
<glyph glyph-name="ingenieria-electrica-electronica" unicode="&#36;" d="M173 303l0-177 177 0 0 177z m160-162l-145 0 0 145 145 0z m-172 72c0-3-3-6-7-6-4 0-7 3-7 6 0 4 3 7 7 7 4 0 7-3 7-7z m81-87l33 0 0-35-33 0z m-142 146l7 0 0-134-7 0z m41-192l0 15-18 0 0 122 26-1 0-6-20 0 0-109 18 0 1-20z m-15 92l0 6 23-1 0-6z m272-35l0 6 30 1 0 128-38 0 0 6 44 0 0-141z m-12 80l45 1 0-7-45 0z m-276 57c0-3-3-7-6-7-4 0-7 4-7 7 0 4 3 7 7 7 3 0 6-3 6-7z m49-100c0-4-3-7-7-7-4 0-7 3-7 7 0 3 3 7 7 7 4 0 7-4 7-7z m232 100c0-4-3-7-6-7-4 0-7 3-7 7 0 4 3 7 7 7 3 0 6-3 6-7z m-1-61c0-3-3-6-7-6-4 0-7 3-7 6 0 4 3 7 7 7 4 0 7-3 7-7z m14-74c0-3-3-6-6-6-4 0-7 3-7 6 0 4 3 7 7 7 3 0 6-3 6-7z m-36 181l-4 5 32 22 40 0 1-6-39-1z m-217 14l48 0 0-7-48 0z m243-261l0 37-16-1 0 7 22 0 1-43z m-32-12l-6 0 0 24-26 0 1 16 6 0-1-10 27 0z m-53 0l-13 11 0 29 7 0-1-26 11-9z m-118-1l-6 0 0 31 25 0 1 10 6 0-1-16-25 0z m-43 203l-17 1 1 26 6 0 0-20 10 0z m-34-134c0-6-5-12-12-12-6 0-12 6-12 12 0 7 6 12 12 12 7 0 12-5 12-12z m42-60c0-6-5-12-12-12-6 0-12 6-12 12 0 7 6 12 12 12 7 0 12-5 12-12z m44-20c0-7-6-12-12-12-7 0-12 5-12 12 0 6 5 12 12 12 6 0 12-6 12-12z m129 11c0-7-5-12-12-12-7 0-12 5-12 12 0 6 5 12 12 12 7 0 12-6 12-12z m42-10c0-7-5-12-12-12-7 0-12 5-12 12 0 7 5 12 12 12 7 0 12-5 12-12z m39 11c0-7-6-12-12-12-7 0-12 5-12 12 0 7 5 12 12 12 6 0 12-5 12-12z m50 283c0-7-6-12-12-12-7 0-12 5-12 12 0 7 5 12 12 12 6 0 12-5 12-12z m-313-46c0-7-5-12-12-12-6 0-12 5-12 12 0 6 6 12 12 12 7 0 12-6 12-12z m5 33c0-6-6-12-12-12-7 0-12 6-12 12 0 7 5 13 12 13 6 0 12-6 12-13z m59 0c0-4-3-7-7-7-3 0-7 3-7 7 0 4 4 7 7 7 4 0 7-3 7-7z m-50-65c0-4-3-7-7-7-4 0-7 3-7 7 0 4 3 7 7 7 4 0 7-3 7-7z m60-163c0-4-3-7-7-7-3 0-6 3-6 7 0 4 3 7 6 7 4 0 7-3 7-7z m85-2c0-4-3-7-7-7-4 0-7 3-7 7 0 4 3 7 7 7 4 0 7-3 7-7z m34 0c0-4-3-7-7-7-4 0-7 3-7 7 0 4 3 7 7 7 4 0 7-3 7-7z m45 12c0-4-3-7-7-7-4 0-7 3-7 7 0 4 3 7 7 7 4 0 7-3 7-7z m-16 206c0-3-3-6-6-6-4 0-7 3-7 6 0 4 3 7 7 7 3 0 6-3 6-7z m-94 101l0-31 22 0 0 4-3 0c-2 0-4 2-4 4 0 1 0 2 1 3 1 1 2 1 3 1l3 0 0 5 3 0 0-5 3 0c2 0 4-2 4-4 0-1-1-2-1-3-1 0-2-1-3-1l-3 0 0-4 31 0 0 4-3 0c-2 0-4 2-4 4 0 1 1 2 1 3 1 1 2 1 3 1l3 0 0 5 3 0 0-5 3 0c2 0 4-2 4-4 0-1 0-2-1-3-1 0-2-1-3-1l-3 0 0-4 16 0 0-17-75 0 0-70-34 0 0 70-73 0 0 17 19 0 0 4-3 0c-2 0-4 2-4 4 0 1 1 2 1 3 1 1 2 1 3 1l3 0 0 5 4 0 0-5 3 0c2 0 3-2 3-4 0-1 0-2-1-3 0 0-1-1-2-1l-3 0 0-4 31 0 0 4-3 0c-2 0-4 2-4 4 0 1 0 2 1 3 1 1 2 1 3 1l3 0 0 5 3 0 0-5 3 0c2 0 4-2 4-4 0-1-1-2-1-3-1 0-2-1-3-1l-3 0 0-4 16 0 0 31-73 0 0 17 19 0 0 4-3 0c-2 0-4 2-4 4 0 1 1 2 1 3 1 1 2 1 3 1l3 0 0 5 4 0 0-5 3 0c2 0 3-2 3-4 0-1 0-2-1-2 0-1-1-2-2-2l-3 0 0-4 31 0 0 4-3 0c-2 0-4 2-4 4 0 1 0 2 1 3 1 1 2 1 3 1l3 0 0 5 3 0 0-5 3 0c2 0 4-2 4-4 0-1-1-2-1-2-1-1-2-2-3-2l-3 0 0-4 16 0 0 26 34 0 0-26 22 0 0 4-3 0c-2 0-4 2-4 4 0 1 0 2 1 3 1 1 2 1 3 1l3 0 0 5 3 0 0-5 3 0c2 0 4-2 4-4 0-1-1-2-1-2-1-1-2-2-3-2l-3 0 0-4 31 0 0 4-3 0c-2 0-4 2-4 4 0 1 1 2 1 3 1 1 2 1 3 1l3 0 0 5 3 0 0-5 3 0c2 0 4-2 4-4 0-1 0-2-1-2-1-1-2-2-3-2l-3 0 0-4 16 0 0-17-75 0z m-113-20l19 0 0-3-19 0z m36 0l16 0 0-3-16 0z m34 0l9 0 0-3-9 0z m-70 48l19 0 0-3-19 0z m36 0l16 0 0-3-16 0z m34 0l9 0 0-3-9 0z m110-49l18 0 0-4-18 0z m-35 0l17 0 0-4-17 0z m-32 0l14 0 0-4-14 0z m67 49l18 0 0-3-18 0z m-35 0l17 0 0-3-17 0z m-32 0l14 0 0-3-14 0z m-68-223l7-9c0 0 44 32 90-3l8 10c0 0-46 41-105 2z m92-19c0 0-34 30-79 1l5-7 3-4c0 0 30 23 62-1z m-64-20c27 18 48-1 48-1l-3-5-5-5c0 0-15 12-33 1z"/>
<glyph glyph-name="sociologia" unicode="&#37;" d="M333 261c0 0-12-2-12-17-1-15 0-230 0-230l123 0-115 484-48 0 0-239-23 0 0 239-44 0-113-485 117 0c0 0 1 216 1 231-1 14-13 17-13 17l-19 0-17 36 58 0c23-9 29-38 29-38l0-246 26 0 0 246c0 0 6 29 29 38l62 0-21-36z m-102 46c-11 0-20 9-20 20 0 11 9 20 20 20 10 0 19-9 19-20 0-11-9-20-19-20z m78 0c-11 0-20 9-20 20 0 11 9 20 20 20 11 0 20-9 20-20 0-11-9-20-20-20z"/>
<glyph glyph-name="torres" unicode="&#38;" d="M233 447c5-3 10-5 15-8 1-1 2-2 2-3 0-2 0-4 0-6 0-109 0-219 0-329 0-1 0-2 0-3 0-4-1-5-4-5-8 0-17 0-25 0-3 0-4 1-4 4 1 11 1 22 2 33 1 38 3 76 5 114 2 50 4 100 7 150 0 17 1 35 2 53z m107-354c-10 0-20 0-29 0-1 0-2 2-2 3-2 22-3 44-5 66-1 24-3 48-5 72-1 22-2 45-4 67-2 25-3 49-5 74-1 16-2 32-3 47 0 1 1 3 2 3 5 4 10 7 16 11 12-115 24-228 35-343z m-43 0c-7 0-14 0-21 0-4 0-11-1-14 1-2 2-1 9-1 14 0 104 1 208 0 312 0 11 4 16 13 21 8-116 15-232 23-348z m-87 343c5-3 9-5 14-8 1 0 1-3 1-4-1-18-2-36-3-54-1-20-3-40-4-61-2-25-3-51-5-76-1-25-3-50-4-75-1-20-3-40-4-61 0-3-2-4-5-4-8 0-15 0-23 0-4 0-5 1-5 5 2 14 3 27 5 41 2 20 4 40 7 61 2 23 5 46 7 69 3 20 5 40 7 61 3 23 5 46 8 69 1 11 2 21 3 32 0 1 0 2 1 5z m149-370c-2 0-4 0-5 0-65 0-131 0-196 0-5 0-6 1-6 6 1 13-1 11 12 11 63 0 125 0 188 0 7 0 7 0 7-7 0-3 0-5 0-8 0-1 0-1 0-2z"/>
<glyph glyph-name="unidad-administrativa" unicode="&#39;" d="M384 167l-25-25-34 0-36 63-27 47 0 73c0 0 5 25 24 32l54 0-19-31-16 0c0 0-10-2-11-14 0-6 0-51 0-59l29-48-1 0c0 0 20-35 20-34 1 0 8 8 10 10 8 9 3 18 3 18l-12 12 9 34 38-37c8-19-6-41-6-41z m65 56c-10 10-26 10-36 0-10-10-10-26 0-36 10-10 26-10 36 0 10 10 10 26 0 36z m21-95l-35-9-12 12c0 0-9 6-18-3 0 0-17-22-22-28l-126 1-1 0-126-1c-4 5-15 20-22 28-8 9-18 3-18 3l-11-12-34 9 37 37c19 9 40-5 40-5l27-28 108 0 0 0 108 0 27 28c0 0 21 14 40 5z m-219 124l-27-47 0 0-35-63-35 0-25 25c0 0-14 21-5 40l37 38 9-35-12-11c0 0-6-9 3-18 3-3 10-10 10-11 1 0 20 34 20 34l0 0 28 49c0 7 1 53 0 58 0 13-10 15-10 15l-17 0-18 31 53 0c20-8 24-32 24-32z m32 133c0-15-11-26-25-26-15 0-26 11-26 26 0 14 11 25 26 25 14 0 25-11 25-25z m-182-162c-10 10-27 10-37 0-10-10-10-26 0-36 10-10 27-10 37 0 10 10 10 26 0 36z"/>
<glyph glyph-name="portal-docentes" unicode="&#40;" d="M31 312l1-45 24 0c0 0 15-3 16-21 0-18 0-150 0-150l47 0 0 169c0 0-7 36-36 47z m135 40c0-21-17-38-38-38-21 0-38 17-38 38 0 21 17 38 38 38 21 0 38-17 38-38z m55-40l0-45-24 0c0 0-15-3-16-21 0-18-1-150-1-150l-46 0 1 169c0 0 7 36 35 47z m224-68l-204 0c-21 0-38 17-38 37l0 98c0 21 17 38 38 38l204 0c21 0 38-17 38-38l0-98c0-20-17-37-38-37z m-204 167c-18 0-32-14-32-31l0-98c0-18 14-32 32-32l204 0c18 0 32 14 32 32l0 97c0 18-14 32-32 32l-204 0z m-23-111l-4 4 74 74 4-4z"/>
<glyph glyph-name="portal-docentes2" unicode="&#41;" d="M68 359l2-70 38 0c0 0 23-5 24-33 1-29 1-236 1-236l73 0 0 266c0 0-12 56-56 74z m212 63c0-33-27-59-59-59-33 0-59 26-59 59 0 32 26 59 59 59 32 0 59-27 59-59z m88-63l-1-70-38 0c0 0-23-5-24-33-1-29-2-236-2-236l-72 0 0 266c0 0 12 56 56 74z m-13-25l-12 12 116 117 13-12z"/>
<glyph glyph-name="duacyd" unicode="&#117;" d="M208 451l5-22c0 0 101 20 154-77l21 11c0 0-47 107-180 88z m144-107c0 0-35 79-135 64l3-16 1-8c0 0 70 15 108-52z m-128 17c62 9 84-41 84-41l-10-5-12-6c0 0-17 33-56 27z m-50-76c0-21-17-37-38-37-20 0-37 16-37 37 0 21 17 38 37 38 21 0 38-17 38-38z m102-3c0-21-17-38-37-38-21 0-38 17-38 38 0 20 17 37 38 37 20 0 37-17 37-37z m97 1c0-21-17-38-38-38-21 0-37 17-37 38 0 21 16 37 37 37 21 0 38-16 38-37z m86-94l-56 0 28 50 57 0z m-68-69l-48-40 0 105 48 0z m-95 0l39-40 0 105-27 0c-7 0-12-5-12-12z m-116 0l-38-40 0 105 26 0c7 0 12-5 12-12z m-160 118l29-47 24 0c0 0 13-2 13-20 1-19-1-50-1-50l50-41 0 109c0 0-8 38-36 50l-79 0z m406 0l-28-49-92 0c0 0-18 0-19-18-1-19 0-55 0-55l-48-37 0 111c0 0 7 37 36 48z m-306-2l28-47 25-1c0 0 12-1 13-20 0-17-1-49-1-49l49-41 0 109c0 0-7 38-36 49l-78 0z"/>
<glyph glyph-name="suayed" unicode="&#42;" d="M326 101l-284 0c-12 0-22 9-22 21l0 11 303 0z m16 331l3-19c0 0 87 17 131-65l18 9c0 0-40 91-152 75z m121-91c0 0-29 67-114 55l2-15 1-7c0 0 59 13 92-44z m-108 14c53 8 71-35 71-35l-8-4-10-5c0 0-14 28-48 23z m43-105l-64 0c-7 0-12-5-12-12l0-130c0-6 5-12 12-12l64 0c6 0 12 6 12 12l0 130c0 7-5 12-12 12z m4-136l-71 0 0 125 71 0z m-360 19l13 0-2 172 317 0 1-55 12 0 0 53c0 8-6 14-13 14l-315 0c-7 0-13-6-13-13z m115 102l13-24 13 0c0 0 8-1 8-10 1-10 0-28 0-28l25-19 0 57c0 0-4 19-19 25l-40 0z m83 20c0-10-9-19-20-19-11 0-19 9-19 19 0 11 8 20 19 20 11 0 20-9 20-20z m43-20l-14-24-12 0c0 0-8-1-9-10 0-10 0-28 0-28l-24-19 0 57c0 0 3 19 18 25l41 0z"/>
<glyph glyph-name="direccion-1" unicode="&#43;" d="M276 492l0-47c0 0-139 3-180-154l-47 0c0 0 15 178 227 201z m0-382c0 0 109-11 147 119l39 0c0 0-19-145-186-158l0 39z m0 335l0-41c0 0 113 12 145-121l41 0c1 0-14 150-186 162z m0-422l0 47c0 0-139-3-180 154l-47 0c0 0 15-178 227-201z m29 309c0-18-15-33-34-33-18 0-33 15-33 33 0 19 15 34 33 34 19 0 34-15 34-34z m-141-46l23-40 21 0c0 0 13-3 14-18 1-15 0-48 0-48l42-32 0 96c0 0-7 33-31 43l-69 0z m213 0l-23-40-21 0c0 0-13-3-14-18 0-15 0-48 0-48l-42-32 0 97c0 0 7 32 31 42l69 0z"/>
<glyph glyph-name="chevron-right" unicode="&#60;" d="M208 416l-64-64 96-96-96-96 64-64 160 160z"/>
<glyph glyph-name="right-open-mini" unicode="&#61;" d="M195 169c0 0 81 87 81 87 0 0-81 88-81 88-9 9-9 17 0 25 9 9 17 9 24 0 0 0 99-100 99-100 8-9 8-17 0-25 0 0-99-100-99-100-7-8-15-8-24 0-9 8-9 16 0 25"/>
<glyph glyph-name="unam" unicode="&#62;" d="M354 261l0 102c0 1 0 1 0 1l-197 0c-1 0-1 0-1-1l0-102c0 0 0 0 0 0 1-36 11-69 29-97 18-26 43-45 70-53 0 0 0 0 0 0 28 8 52 27 70 54 18 27 28 60 29 96z m-4 1c0 0 0-1 0-1-1-70-40-130-95-145-54 16-93 75-95 145 0 0 0 1 0 1l0 97 190 0z m-95-122c0 0 0 0 0 0 42 16 73 66 74 122 0 0 0 1 0 1 0 0 0 74 0 74 0 0 0 0 0 0l-147 0c-1 0-1 0-1 0l0-74c0 0 0 0 0-1 2-56 32-106 74-122z m0 4c-39 16-68 64-69 118 0 0 0 1 0 1 0 0 0 56 0 68 0-1 1-2 1-2 1-2 3-7 3-7 0 0 1-2 0-3-1 0 1-1 1-2 1-1 3-4 4-4 1 0 1 1 0 3-1 1-2 5-2 5 0 0-1 2-2 4-1 2-1 5-1 5 0 0 5-1 5-4 1-1 2-8 3-11 1-2 2-4 4-6 1-2 4-5 8-6 5-1 9 1 11 0 2-2 5-6 8-7 2-1 9-2 11-5 1-2 4-3 6-3 2-1 7-3 7-8l-4-9c0 0-4-4-4-7-1-4-2-5 1-11 3-5 5-11 6-15 0-5 5-6 7-8 3-2 0-4-1-8-2-4-1-13-3-18-2-6-4-8-4-13 0-4 1-9-1-13-2-4-1-8-1-12-1-4 1-9 3-12 3-4 10-6 9 0-1 6 0 13 3 16 4 4 4 4 4 4 0 0-1 5 2 8 4 2 6 4 4 4-2 1 0 3 2 3 2 0 3-1 7 5 5 5 6 6 10 9 5 2 7 7 10 10 2 3 7 5 10 6 3 1 5 4 5 7 0 4-1 6 1 11 3 3 2 4 4 6-6-45-32-85-68-99z m70 119c0 0 0 0 0-1 0-2 0-4 0-7-2 3-6 4-8 6-2 3-5 4-6 5-1 0-2 1-5 1-3-1-5 0-6 3 0 3 0 6-4 8-3 1-5 3-7 5-2 1-4 4-5 5-1 0-6-1-6-1 0 0-4 3-9 2 0 0-3 5-6 2-4-2-6-4-9-1-2 2-5 1-7 1-2-1-4 3-5 5 0 1 0 4-1 4-1 0-4-1-7 1-2 1-1 3 0 4 1 2 2 7 2 8l-3 1c0 0-3 0-4-2 0-2-4-4-7-3-3 1-5 2-7 6-1 3-1 5 0 7 0 1-3 4-3 5-1 1-1 0-3 2-1 2-2 3-3 4l119 0c0-6 0-70 0-70z m-124 181c-4 2-8 1-10-1-1-1-2-1-2-1-1 0-6 0-8-3-1-2-2-4-1-6 4-10 4-11 4-11 0 0 0 0 0-1 0 0 6-5 3-11-2-6-2-8 1-9 3-2 4-3 4-9l0 0c0-4 0-8 2-10 1-1 3-2 4-2 2 0 3 1 3 2 3 4 2 11 1 15 0 3-2 10 0 12 3 2 4 3 5 1 0 0 1 0 1 0 1 0 3 1 3 4 0 1 0 2 0 2 0 0 0 0 1 0 2 0 3 0 4 1 1 1 1 3 1 4-1 3-6 10-9 13l-1 1c-1 1-1 1-1 3 0 2-1 4-5 6z m7-29c0 0 0-1 0-1-3 1-6-1-7-2-4-3-3-10-2-16 1-4 1-10 0-11 0 0-1-1-1-1-1 0-1 0-1 1-1 1-1 4-1 7l0 0c0 7-2 10-6 12 0 0-1 0-1 1 0 1 0 2 2 4 3 7-2 13-4 15 0 1-1 4-3 10-1 2-1 3 0 3 1 1 4 2 5 2 1 0 1 0 1 0 1 0 3 1 4 2 1 1 3 1 6 0 3-1 3-2 3-3 0-3 1-4 3-6l1-1c2-3 6-9 8-12 0 0 0 0 0 0 0 0-1 0-1 0-2 0-3 1-5-1-2-1-1-2-1-3z m-14 17c-2 0-4-2-4-3 0-2 2-4 4-4 1 0 3 2 3 4 0 1-1 3-3 3z m-32-2c0 0-13-4-13-12 0-8 8-8 8-8 0 0 1 0 1 0 0 0 0 1 0 1-1 1-2 2-2 3 0 1 2 2 3 3 1 1 3 2 3 4-1 4 1 9 1 9 0 0 0 1 0 1 0-1 0-1-1-1z m-9-15c0 1 0 2 0 3 0 3 3 6 6 7 0-2 0-4 0-5-1 0-1 0-2-1-1 0-3-2-4-4z m16 0c-5-3-8-5-8-5 0 0-1 0 0 0 0 0 0-1 0-1 2 0 17-3 20-3 1 1 4 2 5 5 1 2 1 6-2 9-5 9-7 15-7 15 0 0-1 1-1 1 0 0-14-3-12-17 0 0 1 0 1 0l5 0c0 0 2-1 2-1 0-1 0-2-3-3z m6 3c0 3-3 4-5 4 0 0 0 0 0 0l-2 0c0 6 4 8 7 9 1-2 3-7 6-12 0 0 0 0 0-1 2-2 3-4 2-6-1-2-3-2-4-2-1 0-5 0-11 1 1 1 2 1 2 1 2 1 5 3 5 6z m18-38c0 0 0 1-1 1l-3 1c0 0-2 1-4-1l-15-11c0 1-1-1-1-1 0-1 0-1 1-1 3-1 9-1 10-1 0 0 3 0 4 1 1 2 8 9 9 10 0-1 1 1 0 2z m-11-10c0 0-1 0-2 0l-4 0 11 9c0 0 0 0 1 0 0 0 0 1 0 1l1-1c-2-3-7-8-7-9z m5-4c2-1 6-1 6-1 0 0 2 0 4 3l4 7c0 0 1 1 0 2 0 1 0 1-1 1-2 1-3 1-3 1 0 0-3 1-4-1-1-2-7-9-7-9 0 0-1-2-1-3 1 0 1 0 2 0z m6 3c0 0-2 0-3 0 1 2 5 6 6 7 0 0 0 0 1 0-1-2-3-6-3-6 0-1-1-1-1-1z m9-4l4 0c1 0 3 1 3 4l0 8c0 0 0 0 0 0 0 0-1 2-3 2-1 0-3 0-3 0 0 0-1 0-2-2 0-2-3-7-3-7 0 0 0-2 0-3 1-1 2-2 4-2z m4 4c0-1 0-1 0 0l-4 0c1 1 2 4 3 6 0 0 1 0 1 0z m18-3l4 0c0 0 1 0 1 1 0 0 0 1 0 2-1 3-6 13-6 13 0 0-1 2-2 1l-3-1c0-1-1-1-1-3 1-2 4-11 4-11-1-1 0-2 3-2z m-4 13c1-3 4-7 5-10-1 0-2 0-2 0 0 2-2 7-3 10z m-8-14c1 0 6 0 6 0 0 0 1 0 1 1 1 0 1 1 0 2l-3 10c-1 0-1 1-3 1-1 0-2 0-2 0 0 0-1-1-1-2 0-1 1-9 1-10-1-1 0-2 1-2z m2 3c0 3-1 6-1 8l3-7z m18-2c2 0 5 1 5 1 1 0 2 0 2 1 1 1 1 2 0 3-2 4-10 15-10 16 0 0-1 1-1 1-1 0-1 0-2 0 0 0-2-3-2-3-1 0-2-2-1-4 1-2 7-13 7-13 0 0 0-2 2-2z m-6 17c1 0 1 0 1 1 2-3 7-11 9-14-1 0-3 0-4 0-1 2-5 10-6 13z m-83-139c-7 4-14 1-14-6 0-15 31-13 26 13-3 16-13 35-15 63-2 29 13 38 13 38l0 7c-24-11-19-63-12-87 7-24 2-28 2-28z m239-5c0 6-7 9-14 6 0 0-5 3 2 27 7 24 12 76-12 88l0-7c0 0 15-9 13-38-2-29-12-48-15-63-5-27 26-29 26-13z m-249-16l-15-12c-17 13-24-3-24-3 6 1 11 0 11 0-13-4-10-12-10-12 0 0 14 8 20-1 7-12-2-21-2-21 22 0 14 30 14 30l20 19-14 0z m281-15c0 0-8 16-25 3l-15 12-14 0 20-20c0 0-8-30 15-30 0 0-9 9-2 22 5 9 19 1 19 1 0 0 3 8-10 11 0 1 6 2 12 1z m-261 127l0 12c-1-2-3-4-5-5-2-2-1-3-1-3 5 0 6-4 6-4z m-3-30c1-9 3-5 3-5 0 0 0 13-1 15 0 3-8 1-8-1 0-3 1-14 1-14l3 0-1 10c0 0 2 3 3-5z m2-29c2-2 2 11 1 14 0 0-6 2-6-2 1-3 2-8 5-12z m-8 52c0-2 9-1 9-1l0 4c-1 0-9 1-9-3z m8-8l0 4c0 0-8 2-8-2 0-3 8-2 8-2z m22-147c0 2-1 3-2 3-2 0-3-1-3-3 0-1 1-3 3-3 1 0 2 2 2 3z m191 27c-2 0-3-1-3-2 0-2 1-3 3-3 1 0 2 1 2 3 0 1-1 2-2 2z m-7-4c0 2-1 3-2 3-2 0-3-1-3-3 0-1 1-2 3-2 1 0 2 1 2 2z m-7-1c0 2-1 3-3 3-1 0-2-1-2-3 0-1 1-2 2-2 2 0 3 1 3 2z m-202-44l2 15c0 0-2 3-6 1l-2-11c0 0-2-4-8 0l1 12c0 0-2 2-5 1l-1-15c0-1 7-11 19-3z m-9 6c1 0 1 1 1 2l1 5c0 1-1 1-2 1-1 0-1 0-1-1l-1-5c0-1 1-2 2-2z m29-9l1 14c0 0-1 3-5 1l-1-11c0 0-2-4-7 1l0 11c0 0-1 2-5 0l-1-14c1 0 8-9 18-2z m-8 6c1 0 2 1 2 2l0 4c0 1 0 2-1 2-1 0-2-1-2-2l0-4c0-1 0-2 1-2z m27-8l1 8c0 0-1 4-4 1l-1-3c0 0-2-2-1 2 0 5 0 5 0 5 0 0-1 1-2-1l0-6c0 0-1-1-3 0l1 8c0 0-1 4-5 1l-1-13c0 0 5-9 15-2z m-48 32c0 2-1 3-2 3-2 0-3-1-3-3 0-1 1-2 3-2 1 0 2 1 2 2z m13-1c0 1-1 2-3 2-2 0-3-1-3-2 0-2 1-3 3-3 1 0 3 1 3 3z m9-2c0 1-1 2-2 2-2 0-3-1-3-2 0-2 1-3 3-3 1 1 2 2 2 3z m-12 43l0-9 6-5c0 0 3 11-6 14z m8-23c0-1-2-2-2 1-1 3-3 2-5 2-1 0-3-5-4-1-1 3-2 5-7 5l0-9 23-6c0 0 0 7-1 8 0 0-3 1-4 0z m6-12c0 0-16 5-23 5l0-3 24-6c0 0 1 1-1 4z m215-30l-1 15c-4 2-5-1-5-1l1-11c-6-5-8-1-8-1l-1 11c-5 2-6-1-6-1l1-14c12-8 19 2 19 2z m-11 6c0-1 1-2 1-2 1 0 2 1 2 2l-1 5c0 1-1 1-1 1-1 0-2-1-2-1z m-11-9l-1 15c-3 1-5-1-5-1l0-11c-5-5-7 0-7 0l-1 10c-4 2-6 0-6 0l1-15c12-7 19 2 19 2z m-10 12c-1 0-1-1-1-2l0-4c0-1 1-2 2-2 1 0 1 1 1 2l0 4c0 1-1 2-2 2z m-22-10l0 3c-4 3-4-1-4-1l0-8c10-7 15 2 15 2l0 14c-4 2-5-1-5-1l1-8c-2-1-3 0-3 0l0 6c-1 2-2 0-2 0 0 0 0 0 0-4 0-5-2-3-2-3z m-252 289c2 1 3 2 3 5l-8 19-2-1 7-19c1-1 1-2 0-2-1-1-2 0-3 1l-7 19-2-1 8-19c1-2 3-2 4-2z m9 3l-6 20 8-19 4 1-7 23-2-1 5-19-8 18-3-1 7-22z m11 3l-5 24-2-1 5-23z m8 3l-2 23-2 0 2-21-6 20-2-1 7-22z m11 2l0 2-3-1-3 9 4 1 0 2-4-1-2 9 4 0 0 2-6-1 4-23z m6 1l-2 11 1 0c1 0 2 0 2-1l2-10 2 1-2 9c0 2-1 2-2 2 1 0 2 1 2 3l-1 6c-1 3-2 3-4 2l-4 0 4-23z m-4 21l1 0c1 0 2 0 2-1l1-5c0-2 0-2-1-2l-2 0z m10-2c0-1 0-2 1-4l5-5c0 0 1-1 1-2l0-3c0-1 0-2-1-2-1 0-1 1-1 2l-2 3-2 0 1-3c0-3 1-3 4-3 2 0 3 1 3 4l0 3c0 1-1 2-1 3l-5 5c0 1 0 1-1 2l0 3c0 1 0 1 1 1 0 1 1 0 1-1l1-3 2 1-1 3c0 2-1 3-4 2-2 0-3-1-3-4z m15-16l-3 23-2 0 3-23z m8 1c3 1 4 2 3 4l-2 16c-1 2-1 4-4 4l-4-1 3-23z m-3 22c1 0 2 0 2-2l2-16c0-1 0-2-2-2l-1 0-2 20z m12-14l3 0 2-6 2 0-6 23-3 0-1-24 2 0z m0 15l3-13-3-1z m13-20c4 0 4 2 4 4l-2 16c0 2-1 3-4 3l-3 0 2-24z m-2 21c2 0 2 0 2-1l2-17c0-1-1-2-2-2l-1 0-2 20z m17-20l-1 21 0 0 4-21 3 0-2 24-1 0 1-21 0 0-4 20-3 0 2-23z m12 7l3 0 1-6 2 0-5 23-3 0-2-23 2 0z m1 16l2-13-3 0z m12-22c2 0 3 2 3 4l0 4-2 0 0-4c0-1-1-1-1-1-1 0-1 0-1 1l-1 18c0 1 0 1 1 1 1 0 1 0 1-1l0-3 2 0 0 3c0 1-1 2-3 2-2 0-3-1-3-3l1-18c0-2 1-3 3-3z m9 1l-1 23-2 0 1-23z m8 0c3 0 3 1 3 4l0 16c0 2-1 4-4 4-3 0-4-2-4-4l1-16c0-3 1-4 4-4z m-1 22c1 0 1-1 1-2l1-16c0-2 0-2-2-2-1 0-1 1-1 2l-1 16c0 1 1 2 2 2z m10-22l0 21 3-21 3 0 0 24-2 0 0-20-3 20-3 0 0-24z m12 7l3 0 1-7 2 0-3 24-3 0-3-24 2 0z m2 15l1-13-3 0z m14-20l-4 0 0 22-2 0 0-24 6 0z m9 5l4 0 0-7 3 0-4 24-3 0-4-24 2 0z m2 15l2-13-3 0z m12-22c2 0 4 0 4 3l0 20-2 0 0-19c0-2-1-2-2-2-1 0-1 0-1 2l0 19-2 0 0-20c-1-2 1-3 3-3z m9 0l2 0 1 21 3 0 0 2-8 0 0-2 3 0z m11-1c3 0 4 1 4 3l1 16c0 3 0 4-3 4-3 0-4-1-4-3l-1-16c0-2 1-4 3-4z m-1 4l1 16c0 1 1 2 2 2 1 0 1-1 1-3l-1-15c0-2 0-2-1-2-2 0-2 1-2 2z m12 16l2-21 3 0 2 24-2 0-2-20-1 20-3 0-2-23 2 0z m12-22c3 0 4 2 4 4l2 16c0 2-1 4-4 4-3 0-4-2-4-4l-1-16c0-2 1-3 3-4z m-1 4l2 16c0 2 0 2 2 2 1 0 1-1 1-2l-2-16c0-1 0-2-2-2-1 0-1 1-1 2z m13 17l1-21 2-1 5 22-2-22 2 0 2 23-3 1-5-21 0 21-4 0-2-23 2 0z m14-16l3-1 0-6 2 0 0 23-3 1-6-23 2 0z m4 15l0-14-3 0z m32-5l-1-22 3 0 6 21-4-22 2 0 4 23-3 1-6-21 1 22-3 0-4-23 2 0z m16-25l0 2-4 1 2 9 4-1 0 2-3 1 1 8 4 0 0 1-5 1-5-23z m1 0l3-1 4 9 0-10 2-1-1 13 6 11-2 0-4-9 0 10-2 1 0-13z m13-4l7 24-3 0-6-23z m7-2c2 0 4 0 4 2l1 4-2 0-1-3c0-1-1-2-1-1-1 0-1 1-1 1l5 17c1 1 1 1 2 1 1 0 1-1 0-2l0-2 2-1 1 3c0 2 0 4-2 4-2 1-4 0-4-2l-6-16c-1-3 0-4 2-5z m10-3c2-1 4 0 5 2l6 15c1 2 1 4-2 5-3 1-4 0-5-2l-6-15c-1-2-1-4 2-5z m0 4l6 15c0 1 1 2 2 2 1-1 1-2 1-3l-6-15c-1-1-1-2-3-1-1 0-1 1 0 2z m-387 2c4-6 5-7 5-12l0-1c0-4 0-8 2-11 2-3 7-4 12-4 4 0 10 1 17 3 10 2 22 4 34 3-3-2-11-9-29-7-18 2-37 2-43-7-4-5-3-12 1-22 0 0 1 0 1 0 0 0 13 4 10 20 6-1 11-2 16-5 1 0 3 0 4-1-11-3-20-7-20-12 0-3 4-4 11-8 8-4 16-7 23-10 21-11 36-19 38-17 3 3-46 22-35 39 7 9 17-3 8-5-8-2 13-24 38-32 0 0 5 5 8 7 0 0 4 3-1 4-6 2-40 12-26 25 4 4 5 7 2 9 6 2 10 4 12 7 3 3 5 6 5 9 0 10-11 22-15 26 32 5 76 9 126 9 52 1 96-3 130-9-5-4-16-16-16-25 0-3 2-7 5-9 2-2 4-4 7-6-3-2-5-5-5-7 0-7 7-10 7-10 1-9-21-18-26-21 1 0 4-1 7-3 20 5 26 16 30 22 4 6-7 2-7 8 0 6 17 10 13-6-3-14-24-23-33-27 1-1 3-2 4-4 0-1 1-2 2-2 1 0 1 3 2 3 2-1 3-1 4 0 1 2 0 4 2 3 1-1 1-2 3-2 2 1-1 5 2 4 3-1 4 1 3 3 0 1 2 0 4-1 2-1 2 2 1 3-1 2 0 3 2 1 2-2 5-1 2 2-2 2 1 4 3 2 3-2 3-1 1 2-1 2 0 3 4 1 3-2 5-2 2 1-4 3-2 5 1 3 4-2 8-3 4 0-4 4-5 7 0 4 5-3 8-2 1 3-7 4 4 0 7-2 2-3 3 1-2 4-5 3-2 3 4 0 7-3 7 0 1 2-5 2-7 6-1 3 8-4 14-4 8-1-3 2-6 3-7 4 2 1 5 0 10-3 9-6 0-13-8-16-12-5-16-9-29-18-7-5-17-7-23-7 0-1 1-3 1-4 11 0 23 4 31 8 10 7 27 16 39 19 10 3 19 7 5 18-6 4-11 7-15 9 0 0 0 0 1 0 5 3 10 4 16 5-3-15 10-20 10-20 1 0 1 0 1 0 4 10 5 18 1 22-6 9-25 9-43 7-20-2-28 6-29 8 2 0 4 0 7 0 6-1 12-2 18-3 15-2 29-5 36 0 2 2 4 4 4 8 0 6 4 11 6 16 3 5 6 9 4 13-1 3-3 5-7 7-20 8-49 16-84 21-38 7-81 10-123 10-82 0-158-11-199-27 0 0-8-3-10-9-1-3 0-6 2-9 2-1 3-3 5-5z m5 20c41 16 117 27 198 27 100 0 173-17 205-31 3-1 5-3 6-4 1-3-2-6-4-10-3-6-7-11-7-18 0-2-1-4-3-5 0 1-1 2-2 3-14 14-97 29-194 29-50 0-99-4-138-11-18-3-32-7-42-11-8-3-14-6-16-9 0 2 0 4 0 7l0 1c0 6-2 8-6 14-1 2-2 4-4 6-1 2-1 4-1 5 1 4 6 6 8 7z m362-41c-6 2-13 3-19 3-14 1-22-4-27-8 1 7 11 18 17 23 31-5 51-12 57-18 1-1 1-1 1-1 0 0 0-1 0-1-7-1-18 0-29 2z m-30-2l2-1c2-2 11-11 32-9 9 1 29 3 38-3-9 2-17-1-25-4-1 0-3-1-4-1-19 7-36 5-45 1-5 1-8 3-10 5-1 1-2 3-2 4 2 3 6 7 14 9 0-1 0-1 0-1z m67-16c3 0 5 0 8-1 1-4 0-8-2-14-3 2-8 6-6 15z m-315 15c-16 10-38 6-54 3-7-1-12-2-16-2-3 0-5 0-7 1 0 0 0 0 0 1 0 0 0 1 1 2 6 5 27 12 60 18 6-7 14-16 16-23z m-16-17c-7 2-19 2-26 1-3-1-7-1-10-2-4 1-7 2-10 3-8 2-16 5-24 4 8 6 28 3 37 2 22-2 31 7 33 10l1 1c6-1 11-3 16-6-1-5-7-10-17-13z m-72-13c-2 6-3 11-2 15 3 0 5 1 8 1 2-9-3-14-6-16z m215-15c0 0 0 0 0 0 0-1 0-1 0-1 0 0 1-11 14-11 11 0 21 9 23 11 2-2 8-11 13-10 2 0 4 2 5 5 2-1 6-5 12-5 4 0 9 3 13 9 0 0 0 1 0 1 0 0-1 0-1 0 0 0-11-3-17 1-4 3-6 8-6 14 0 9 1 15 2 18 3-1 6-3 10-3 12 0 15 7 15 7 0 0 0 1 0 1 0 0-1 0-1 0-4-1-6 0-9 0 6 2 10 2 12 0 2-2 1-5 1-5 0 0 0-1 1-1 0 0 0 0 0 0 4 5 6 9 5 12-2 5-11 8-20 10-12 2-16 15-16 15 0 0 0 1-1 1 0 0 0 0 0 0-4-2-6-4-8-6l-8 10c0 0 0 0 0 0 0 0-1 0-1 0 0 0-3-5-1-11-2 1-4 4-4 7 0 0 0 1-1 1 0 0-1 0-1 0 0 0-8-8 0-19-2-1-8-3-20 1 0 0-1 0-1 0 0 0 0 0-1-1 0 0-1-5 3-8 2-3 6-5 13-5-2-2-8-5-20-1 0 0 0 0 0 0 0 0 0-1 0-1 0 0 3-14 21-12-4-3-13-10-26-6 0 0-1 0-1 0 0 0 0-1 0-1 0 0 0-8 6-11 6-3 13-1 23 5 0-3-6-13-28-11z m30 37c1 1 1 2 1 3-1 1-2 2-3 2-6 0-10 1-12 4 0 0-1 1-1 2 14-3 20 0 21 0 0 1 1 2 1 3 0 1 0 1 0 2-4 5-4 8-3 11 2-3 4-5 4-5 1-1 3-1 4 0 1 1 1 2 1 3-1 2-2 4-1 6l5-6c0-1 0-1 0-2-1-4 0-7 1-8-10-7-10-12-9-15-1-2-5-6-12-8-7 0-11 2-14 4 12-2 17 4 17 4z m25 28c1-2 3-4 4-6l-4-1-4 4c1 1 3 2 4 3z m34-26c0 1 0 1-1 1-3 3-8 3-16 0-1 0-2-1-2-2 0-1 0-2 1-3 0 0 2-1 5-1-2 0-4-1-7-1-3 0-6 1-9 3 1 1 2 2 4 4 0 0 1 0 1 1 3 2 5 6 7 10 0 0 0 0 1 0 5-1 15-4 17-8 0-1 0-2-1-4z m-17-44c-1-2-3-3-5-3-5 0-10 5-10 5 0 1-1 1-1 1-1 2-2 4-2 7 0 0 0 0 1 0 1-3 3-5 5-7 4-3 9-4 12-3z m-22 63l2-2c0-1 2-1 2-1 0 0 2 0 4 0-1-1-1-2-2-2-2-1-4-1-6 0 0 0 0 0 0 0 1 0-1 2 0 5z m13-15c0 0-1 0-1-1-2-1-4-2-5-4-1 0-1 0-2 1 2 2 4 4 7 5 3 2 4 6 4 9 1-1 1-1 2-1-1-4-3-7-5-9z m-22-42c-1 0-2 2-2 8 2 2 4 4 5 5 0-3 1-5 2-7 1 0 1 0 1-1-2-3-5-6-6-5z m-1 22c0 0 4 1 6 4 0-1 0-2 0-3-4-8-9-11-11-12 0 1 2 6 5 11z m14-14c-3 0-4 0-5 1-2 2-1 7 0 11 1 0 3 0 4 1 0-3 0-5 0-8 0-2 0-3 1-5z m-4 40c2-1 5-1 7 0 2 1 4 3 4 6 0 0 1 0 1 0l0-1c0 0 1-5-2-7-4-1-6-4-8-6-1 1-2 1-2 1-1 1-2 1-3 1-1 0-1-1-1-2 0 0-1-1-5-2 1 2 3 6 9 10z m0-46c1-2 2-5 3-6 0 0 0-1-1-1-1-2-2-4-2-4-2 0-5 3-7 6 2 1 5 2 7 5z m0 22c-1 2-2 6-1 10 0 0 0 0 0 0 0 0-1 0-1 0 0 0-3-3-6-5 0 0-1 2-1 6 0 0 0 0 0 0 6 2 7 3 8 4 1-1 3-3 7-5-1-2-1-4-2-7-1-2-3-2-4-3z m-19-1c1 1 1 1 1 2 1 1 3 2 5 4 0-1 0-2 1-3-3-5-7-9-9-11 0 0-1 0-1-1-9-5-15-7-20-5-2 1-3 3-3 5 16-3 26 9 26 9z m1-15c1 0 2 0 3 0 0-1 1-4 1-6 0 0 0-1-1-1 0 0-11-10-21-10-6 0-9 2-10 4 19 0 25 8 28 13z m-220-226c1 1 1 3 0 4-1 0-2-1-2-1 0 0-2-3-6-3-3 0-6-2-9-4-1-1-1-3 0-5 1-3 4-5 5-4 0 0 1 0 0 2l0 1c0 0 0 1 0 1 0 0 0 0 1 0 1-1 3-1 4-1 1 1 1 1 1 3 0 0-1 1-1 1 0 1 0 1 0 1 0 0 0 1 2 1 4 0 5 1 5 4z m-11-5c0 0-1 0-1 0 0 0 0 0 1 0-1 0 0 0 0 0z m404 9c-1 1-2 1-3 2-1 1-2 2-5 2-2 0-3-1-3-1-1-2-1-4 1-8 0-1 0-1 0-2-2 1-4 1-5 2-2 1-3 1-3 0-2-1-3-6-3-11-6 0-10-4-13-7 0 2 0 4-1 5-1 1-2 1-4 1-2 0-4 0-7-2 0 1 0 3 0 4 0 1-1 1-2 1-2 1-4 0-6-1-1-2-1-2-1-4 1-2 3-3 5-4-1-1-1-1-1-1-1-2-2-3-1-4 1-3 4-4 8-6-5-5-10-8-16-7-1 1-7 8-19 5l0-1c-12-3-21-5-26-16-1-4-2-6-4-7-3-4-5-6-7-28-2-1-10-4-16-7-1 0-3 0-4 0-3 0-6-1-10-5-3-3-4-2-5-2-2 0-4 0-6-2-2-1-3-1-4-1 0 2 3 8 7 9 5 1 16 4 20 10 2 4 5 5 7 7 2 2 4 4 3 7-1 2 0 5 1 7 1 3 2 5 0 8 2 0 6 2 7 4 1 0 1 1 1 2-1 1 0 2 0 4 1 3 1 6 0 8 0 1-1 1-3 1 0 2-1 4-3 4-2 0-4-1-5-2-1 0-4 1-6 0-1-2-1-3-1-5l-4-5c-1 0-5 0-12-4l-5-2c-7-5-13-9-15-18-1-4-1-6-2-8 0 1-1 1-1 1-3 1-4 2-6 3-4 1-6 2-8 5-4 5-10 5-17 1-7-5-14-4-22-1-2 1-3 1-5 2-9 4-21 8-25 15-1 1-2 2-3 3-4 6-7 11-15 11-1 0-6 3-12-2 0 0 0-1-1-1 0 0 0 0-1 1-2 2-3 2-7-1-1 0-8-5-10-10 0 0 0 1 0 1-3 7-6 11-10 12-3 2-5 4-7 7-2 1-4 3-5 5-2 1-3 1-4 1-3 0-5-3-7-5l0-1c-2-3-6-7-10-9-2-1-3-2-4-3 0 0 0 0-1 0-1 1-2 2-3 3-1 5-6 11-8 13 1 3 1 6-1 9 2 0 4 1 5 5 1 1 1 2 0 3-1 2-3 3-8 3-4 0-7-3-9-5-2 0-4 0-7-1 0 1 0 3-1 4-6 4-14-4-17-8-3-2-3-5-3-7-1 0-1 0-1 0 0 0 0 0-1 0-1 0-3 0-5 1 0 3-2 9-7 9 0 0-1 0-2 0 0 0 0 1 0 1 0 1 0 2-1 3-1 1-3 2-4 2-3 0-6-3-6-6 0-1 1-3 2-4 1 0 1 0 1-1-1-1-2-2-3-3 0-1 0-2 1-4 2-2 4-3 6-5 0-2-1-3-1-5 0 0 0 0 0-1-1-1-3-2-3-3 0-2 1-3 2-4 0-2 0-5 1-7-1-1-2-3-1-3 1-1 1-1 2-1 0-1 0-1 1-1 1-1 2-3 3-4 0-1 0-1 0-1 0-2 0-4 1-5 1 0 3 0 4 0 1 0 2-1 3-2 1-1 3-2 4-2 0-2 0-4 2-4 1 0 2 0 3 0 4-3 6-5 6-7-1-2-6-7-8-7-1 0-2 0-2-1-2-1-2-4 0-7-2-1-5-4-4-6 1-1 1-2 2-2 1-1 2-2 2-3 0 0-1 0-2-1-3-1-6-2-7-5-1-2 0-5 2-8 0 0 0 0 0 0l-1-2c0 0-5-1-3-5 1-4 7-4 6 2l2 1c3-2 6-2 8-1 3 1 4 3 5 7 2-1 12-5 21-5 1-1 3-2 5-2 1 1 2 2 2 3 2 0 7 0 12 0 0-1 1-2 3-2 2 0 2 2 2 3 1 1 2 1 3 1 1 1 7 2 13 2 0 0 1-1 1-1 2-4 3-5 4-6 0 0 0 0 0-1 0-1-1-2 0-3 0-1 1-1 3-1 4-1 7-1 9-4l0 0c1-2 1-3 2-3 1 0 3 0 5 2 4 3 8 0 9 0 0 0 2-3 5-3 1 0 2 1 3 3 1 1 2 1 3 1 2 0 5 0 9 2 0 0 9 5 14 8 1-1 1-3 1-4 1-5-18-13-10-25 1-2 2-1 2-1 0 0-2 4 1 6 2 2 12-1 17 6 2-7 9-7 9-7 0 0 0 0 0 0l3 18c1-2 2-4 4-5 2-1 4-1 5 0 5-9 12-6 13-6 3 0 5 0 5 1 0 1 1 2-5 5 0 1-1 1 0 1 0 0 0 1 1 1 2 0 6-1 11-8 5-11 15-8 15-8 0 0 1 1 1 1 0 0 0 0-1 0-2 1-3 4-3 5 6-4 12-6 17-6 6 1 9 5 9 5 0 0 0 0 0 0 0 0-1 1-1 0-6-1-9 1-12 5 3 1 7 3 13 10 1 1 10 3 18 0 1 0 2 0 3-1 11-3 33-10 48 1 10 7 12 13 12 15 0 1 0 1 0 2 2-1 3-1 3-1 0 0 0 0 1 0 3 0 8-1 11-2 1-1 2-1 3-1-1-1-3-4 0-6 3-1 10 4 10-1 0-4 3-3 9-1 0 0 2 1 3-1 0-1 1-3 4-3 1 0 2 2 4 4 2 0 4 0 6 0 2-1 3-2 4-1 1 1 1 2 1 3 3 2 5 4 6 6 1 3 1 7 1 9 0 0 2 2 2 4 0 2-3 2-5 5 0 2-1 3-3 4 0 1-1 2-1 4 0 4-4 5-5 1-11 5-25 4-35 2-2-1-5-2-8-2-8-3-16-5-20-1 1 1 3 7 15 11 8 4 28 12 31 24 4 0 33-2 40 8 6 9 11 17 5 24 3 2 5 5 7 7 1 1 2 3 1 4-1 1-2 2-3 3 0 1 1 2 5 3 2 0 2 1 2 2 3 3 1 6-1 6z m-367-10c3 0 5-1 5-1-1-3-2-3-5-1-1 0-2 1-2 1 0 0 1 1 2 1z m318-9c0 0 0 0-1 1 1 0 1 0 1 0 0-1 0-1 0-1z m20-87c0 0 0-1 0-1 0 0 1-4-1-8-1-2-3-4-7-5-11-4-26 3-35 6-1 0-2 1-3 1-7 2-16 3-17 3 0 0 0 0-1 0-5 2-6 3-6 7 0 4 2 5 4 6 5-1 11 1 17 3 3 1 5 1 8 2 10 2 24 3 33-3 8-4 8-11 8-11z m-66-8c0 0 0-4-10-13-14-10-34-3-44 0-1 1-2 1-3 1-9 3-18 1-20 0 0 3 0 7-1 10-1 2 2 5 4 6 3 1 5 1 7 2 1 0 4 0 6 1-1-1-2-4-1-5 2 0 8-2 6 7 2 0 4 0 7 2 0 0 1 0 1 0 3 4 5 5 7 5 2 0 3 0 6 1 0 0 0 0 0 0 6 3 15 6 15 6 3-2 8-4 12-2 1-1 2-1 3-2-2-1-3-4-3-7 0-2 0-4 1-6 2-1 4-3 6-3 1-2 1-2 1-3z m-105-25c-1-1-2-2-2-3 0-1 0-3 0-4-2 0-4 3-5 5-5 9-11 11-15 10-1 0-2 0-2 0 0 1 1 2 1 3 2 0 8-1 11 2 0 0 0 0 1 0 0 0 0 0 1 0 3-2 13-8 18-12 1-1 2-2 2-3 2-1 3-3 5-5-4 1-8 3-13 7 0 0-1 0-2 0z m-58-1z m0 1z m6-1c0 0 0 1-1 1 1 3 2 9 2 12 0 1-1 2-2 2-1 1-2 0-2 0 0 0 2-14-7-16-2-1-5-1-8-2-2 0-3-2-4-2 1 7 12 9 12 16 0 6-5 12-6 13-1 0-7 7-9 15 0 0 0 1 0 1 0 0 0 1 0 2 0 1 0 1 0 2 2 8 7 17 17 14 0 0 3-1 5-3 1-1 2-3 2-3 0-4-5-5-5-5 0 0 0 7-5 7-3 0-7-3-8-7-1-4 1-7 6-9 1-1 2-1 4-2 2-1 4-1 6-2 0 0 0 0 0 0 0 0-1 0-1 0 0 0 0-1 1-2 1-2 3-2 6-3 6-1 14-2 14-9 0-6-4-8-5-9 0 3-3 10-13 14-12 4-16 8-17 16 0 0 0 1-1 1 0 0-2 1-3 0 0-1-1-2 0-4 0 0 2-9 10-13 1 0 3-1 4-2 6-2 12-5 14-10-1 0-2-1-2-2l-2-16c-1 1-2 3-2 5z m-45 5c0 0 0 1 0 1 0 0-1 1-1 1-1 0-7 4-14 0-1 0-1-1-2-1 0 0 0 1 0 1l0 0c-3 5-7 5-11 6 0 0-1 0-1 0 1 1 1 3-1 4 0 1-1 2-3 5-3 6 2 14 3 16 2 3 12 9 20 9 8 0 20-4 26-6 0-10 10-19 10-20 0 0 1-1 2-2-5-3-13-8-14-8-3-2-5-2-7-2-1 0-3 0-5-1-1-1-1-2-2-3 0 1 0 0 0 0z m-72 17c-10-3-25 3-25 3-1 1-2 1-3 0-1 0-2-1-2-2 0-1 0-3-2-4-1 0-4 1-8 4-1 2-2 4-2 4 0 1 1 2 5 3 2 1 4 2 4 4 1 2-1 4-2 6 0 0-1 1-1 1 1 1 1 2 2 2 1 1 2 3 1 4 0 2 0 3 0 4 4 1 10 8 10 8 1 2 1 3 1 4-1 5-18 15-18 15-3 2-5 5-7 7-1 1-2 3-4 4-1 2-2 10-1 17 1 4 2 6 4 8 3 2 8 1 10 0 1 0 2 0 3 0 0 0 1 0 1 0 1 1 1 1 1 1 0-1 1-2 1-2 0-1 0-2 1-3 1-2 3-5 5-9 2-2 4-5 5-6 2-3 6-9 10-19 1-1 0-7-1-11 0-1 0-2 0-2 0-2-1-6 0-6 1-1 3-1 4 4 1 0 1 0 2 1 0 0 1 1 9-1l0 0c4 0 9-3 11-5 0 0 2-2 3-3 4-4 9-8 12-11 3-2 5-3 7-4-1-3-3-7-3-11-7 0-12-1-14-2-2-2-11-2-18-2 0-1 0-1-1-1z m-46 95c-1 0-3 0-4-1-1-1-2-1-2-2-2 2-4 3-5 5 0 0 0 0 0 0 0 2 5 4 8 4 1-1 2-3 3-6z m17 4c8 8 10 8 12 8 0-1 0-2-3-7-2-2-3-5-3-7-2 0-4-1-5-2 0 1-1 1-2 2 0 1-1 1-1 2 0 1 0 2 2 4z m64-14l0 1c1 1 3 4 4 4 0 0 1 0 1-1 2-1 3-3 4-4 3-3 6-7 10-8 1 0 4-2 7-10 1-1 2-2 4-3 0-1 0-2 1-3 5-4 9-4 12-5 2 0 5 0 6-2 6-5 10-8 14-10 2 0 4-2 7-4-8-1-14-8-17-18 0 0 0 0 0 0-3 1-6 2-10 3 0 1-1 2-1 4-1 3-6 6-5 3 0 0 1-1 0-3 0-1 0-2 1-3-3 1-7 2-9 2 0 0-1 1-1 2-2 2-2 2-3 1 0 0 0-2 0-3-3 0-7-1-11-3 1 1 0 3 0 4-1 2-1 4-2 3 0 0-2-2-2-5 0-1 1-2 2-3-4-2-7-4-8-6 0 0 0 0 0 0-2 0-5 1-7 3-3 1-6 4-9 7 1 2 1 5 0 6-1 1-2 0-3-3-2 2-3 3-4 3 0 1-1 1-1 2 0 1 0 4-1 4-1 1-2-1-2-3-2 2-5 3-7 3l-1 0c-1 0-1 0-1 0 0 2 1 4 0 4-1 0-2-2-3-3-3 0-6 0-7-1 0 3 1 7 1 10l0 1c5 4 23 17 26 20 1 1 3 2 4 3 4 4 8 8 11 11z m35-19c0 0 0 1 0 0l0 1c2 3 5 6 8 8 1 1 2 1 2 1 0 0 0 0 0 0 2-2 3-2 4-2 1 0 2 1 3 2 4 3 8 1 8 1 0 0 1 0 1 0 6 0 8-3 12-9 1-1 2-3 3-4 4-6 13-10 21-13 0 0-2-1 0-3 2-2 5-7 6-6 0 1-1 5-2 7 1 0 2 0 3-1 1 0 3-1 4-2 9-3 17-5 26 1 7 4 10 2 12 0 2-3 5-4 9-6 2 0 4-1 5-2 2-2 3-2 3-3 0 0 0 0 0 0 0 0-3-6-5-15-1-5-4-5-5-5-15 6-24-1-30-6-2-1-4-3-6-3-2 0-2 0-3 1 0 0-1 0-1 1 0 0-1 1-1 2-1 0-1 1-1 2-1 2-2 5-4 7-4 5-17 12-24 16-2 1-3 3-6 4-3 2-8 7-12 8-3 2-7 5-12 9-2 2-4 3-5 4-1 1-2 5-3 5-1 0-2-3-3-5-2 0-5 1-8 3 0 0 0 0 0 0 0 1 0 2 1 2z m161 2c0 0 0 0 0 0 0-1-1-3 2-3 3 0 6 2 2 6 1 2 4 5 4 5 0 0 0 1 0 2 0 0 0 1 0 1 1 0 1 0 2-1 1 0 3 0 4 1 1 1 1 1 2 1 0 0 0-1 1-1 0-1 1-2 3-2 0 0 0 0 0 0 0-1 0-2 0-4-1-2-1-4-1-6-1 0-3-2-5-2-2-1-2-2-3-3 0-1 1-3 2-3 0-1-1-3-1-3-1-3-3-7-1-11 0 0 0 0-2-2-3-1-6-3-8-8-2-3-9-6-18-9-7-2-10-11-10-12 0 0 0-1 0-2-3-1-11-3-13 2 2 1 4 4 5 7 2 8 4 14 4 14 0 0 1 1 1 2 1 2 2 5 3 12 2 7 6 10 14 15l3 2c7 3 10 2 10 2z m-111-38c0 0 0 0 0 0 6-3 15-9 18-12-2 0-5 0-9-1-10-3-13-2-19 1-1 1-3 1-4 2-3 1-4 2-3 4 0 3 3 4 4 4 0 0 2-1 1-5 0-2 7-2 9 0 1 1 3 3 3 7z m-136 43c-1 2-4 5-6 7-2 3-4 6-5 8 8 3 16 5 18 4 2-2 4-3 4-4 0-2 0-6-11-15 0 0 0 0 0 0z m146-60c7 2 10 0 12-4 1-1 2-2 3-3 2-3 4-6 9-7 2 0 3 0 3-1 0 0 0 0 0-1 0 0 0 0 0 0 0 0 0-1 0-1-2-2-8-3-14-1 0 0-1 0-1 0 0 0-1-1 0-4 0-1 0-1 0-2-1 0-2-1-4-1-1 0-2 0-2 0 1 2 3 5 3 10 0 9-6 12-16 14 1-1 4 0 7 1z m-137 43c-2 5-5 10-7 14 5 4 8 7 10 10 2 0 6 0 9 4 0 1 1 2 1 3 2-2 4-7 5-10 1-1 2-3 4-4-7-5-18-14-22-17z m7 30c0-1-1-2-2-2 1 1 1 3 1 4 0 4-3 6-6 7-2 2-7 1-12 0 1 1 2 2 3 3 0 1 0 1 1 2 0 0 1 0 1 0 9 4 11 2 16-2 1-2 1-6-2-12z m143-102c0 0 0 0 0-1 0 0 0-3 3-5-1 0-5-1-8 5 1 0 3 0 5 1z m39-2c0 0 0 0 0 0 0 0-1 0-2 0-2 3-7 5-11 8 0 1 1 2 0 3-1 2-4 0-5 0-2 1-3 2-4 2 0 0 0 0 0 1 1 1 1 3 0 4-1 2-3 2-6 3 0 0-1 0-2 0 3 1 5 2 8 4 6 5 13 11 26 5 0 0 1 0 2 0 1-1 3-4 7-4-2-2-2-5-2-8 1-3 1-7 1-10-8-9-12-8-12-8z m85 47c-2-1-6-1-10 1 2 20 4 23 7 25 1 2 3 4 4 8 4 10 11 11 23 14l1 1c8 2 13-1 15-3-1-2-3-5-2-9 1-2 3-4 7-5-4-7-14-13-28-18-13-5-16-12-17-14z m46 35c-3 1-5 2-5 4-1 2 0 4 1 5 10-2 19 8 25 15 1 1 2 2 3 3 6 6 11 10 18 4 7-6 5-10-3-22-4-6-24-7-36-6-1-1-3-1-3-3z m9 27c4 5 8 6 10 6 0-1 0-3 0-5 0-1 0-1 0-2-1-1-2-2-3-3-6 2-7 3-7 3-1 1-1 1 0 1z m36 7c-2 1-4 2-5 3 0 4 0 7 0 8 2-1 4-1 6-2 2 0 5-1 6-2 0 0 0 0 0-1-2-3-4-5-7-6 0-1 0-1 0 0z m5 16c-1 2-1 3-1 4 1 0 1-1 2-1 1-1 2-2 4-2-2-1-4-1-5-2 0 0 0 1 0 1z m-420-8c0 1 1 1 1 1 1 0 1 0 1-1 1 0 1 0 1-1 0-1-1-1-2-1 0 0 0 0-1 0 0 1 0 1 0 1 0 1 0 1 0 1z m78-37c-2 0-6-6-3-6 0 0 5 3 6 4 1 2-1 3-3 2z m5-8c2 0 3 1 4 3 1 2 0 5-2 3 0 0-5-5-2-6z m8-3c2 2 3 5 2 7 0 2-1 1-1 1 0 0-4-4-4-6 1-2 2-4 3-2z m11-2c2 0 2 3 0 6 0 2-1 4-2 3 0 0-1-2-1-4 0-3 1-6 3-5z m58 302c0 0-3-1-2-4 0-3 1-4 5-4 4 1 1 8 0 9-1 0-3-1-3-1z m1-5c0 0 0 0-1 2 0 0 0 0 0 0 0 0 1 0 1 0 0-1 0-2 0-3 0 1 0 1 0 1z m-1-5c0 0-2-1-1-3 0-2 0-4 3-4 3 0 3 3 3 5-1 2-4 3-5 2z m2-4c0 0 0 0 0 0 0 0 0 0 0 1 0 0 0 0 0 1 0 0 0 0 0 0 0 0 0 0 0 0 1 0 1 0 1 0-1-2-1-2-1-2z m-2-5c0 0-4-4-1-5 2-1 4-2 5 1 1 4-1 7-4 4z m2-3c0 0 0 0-1 0 0 0 0 0 0 0 0 0 0 1 1 1 0 0 0 0 0-1z m3 26c0 0-2 0-1-3 0-3 1-6 5-5 3 1 2 3 1 7-1 3-2 2-5 1z m3-6c0 0 0 1-1 3l1 0c0 0 0 0 0 0 0 0 1-2 0-3 1 1 0 1 0 0z m-2-6c0 0-1-5 2-5 3 0 5 0 5 4-1 5-7 6-7 1z m4-2c0 0-1 0-1 0 0 0 0 1 0 2 0 0 0 1 0 1 0 0 1-1 1-2 0-1 0-1 0-1z m-1-4c0 0-3-1-3-3 0-3-1-7 3-6 3 0 6 1 5 6-1 4-3 3-5 3z m2-5c0 0-1 0-2 0 0 0 0 0 0 0 0 1 0 1 0 2 0 0 1 0 1 0 0 0 0 0 1 0 0 0 0 0 0 0 0-1 0-2 0-2z m1 30c0 0-2-2-1-6 1-4 3-4 4-3 2 1 3 2 2 6-1 3-3 5-5 3z m2-3z m1-3c0 0 0 0-1-1 0 0 0 1 0 2-1 1 0 2 0 2 0 0 1-1 1-1 0-1 0-2 0-2z m-2-8c1-3 0-6 3-5 4 2 4 3 3 6-1 6-6 1-6-1z m4-1c-1 0-1 1-1 1 0 0 1 1 1 1 0-2 0-2 0-2z m-3-8c0-4 0-6 3-6 3 1 4 3 4 7-1 5-7 2-7-1z m3-3c0 1 0 2 0 2 0 0 0 0 1 1 0 0 0 0 0 0 0 0 0 0 0 0 0-2 0-3-1-3z m81-14c-1 0-1-1-3-2l-1-1c-2-2-6-7-8-7 0 0 0 0 0 0 0-1 0-1 0-1l18 0c0 0 1 0 1 1 0 0 0 0 0 0-2 2-5 7-6 9 0 0 0 0-1 1z m-2-7c0 0 1 1 1 1l0 0c1 0 1-1 1-1z m-246-171c11-36 19-42 16-22-3 21-6 36-4 40 2 3 1 9-1 14-1 5 2 6-2 19-4 13 1 10 1 17-1 6-3 6-2 14 1 8 1 20 1 20 0 0-7 0-8-5-1-5-1-59 3-78 3-20-6-1-8 23-1 23 0 50 0 50 0 0 1 6-7 8 0 0 0-64 11-100z m32 16c0 13-6 19-3 27 3 8 4 11-1 18-4 7-2 6-1 14 1 9-1 21-1 28 0 0-4 3-4-1-1-4 1-49 3-67 3-17-2-10-4 5-1 10-4 60-4 60 0 0-5 5-6 1 0 0-1-60 10-83 13-23 11-15 11-2z m15 14c-2 8-2 9-2 15 1 6-2 11-3 20-1 9-2 29-1 41 0 0-2 2-5-1 0 0 1-30 2-41 1-11-5 1-5 20 0 19 0 23-3 20 0 0-2-59 15-77-1 0 4-4 2 3z m-3 80c0 0-2-54 13-68 15-15 4-1 4 16 0 20-4 15-5 20 0 0-1 20-1 27-1 6-6 8-5-1 2-10 5-35 1-36-4 0-3 16-3 26-1 10 1 15-4 16z m21 2c0 0-3 2-2-7 1-10 3-19 0-19-3 1-2 12-3 17 0 4-1 10-3 6 0 0 1-36 10-51 10-15 10-4 6 5-5 10-6 21-6 29 0 8-2 20-2 20z m10-36c6-8 4-1 3 8-2 9-2 23-1 30 0 0-2 2-4 0 0 0 2-16 1-16-2 1-3 7-3 12-1 6-1 4-3 3-1 0 0-28 7-37z m-82 80c0 0-2-11-2-28-1-17 0-19 7-20 8 0 10 5 11 19 2 14 2 22 2 24 0 2-5 8-6-1-1-9 0-37-6-35-5 1-4 15-3 24 1 10 4 21 1 22-4 1-4-5-4-5z m21-5c0 0-7-41 0-42 11 0 9 11 11 24 1 13 2 17-1 17-2 0-3-13-4-19 0-7 0-16-3-15-3 0-3 10-2 18 3 18 2 21-1 17z m17-5c0 0-1 2-2 2 0 0-2-15-2-23 0-9 1-12 7-12 6 0 5 10 5 18 0 8 2 15 0 16-2 0-2-6-2-11 0-5-1-17-3-17-2 0-4 2-3 11-1 9 0 16 0 16z m160-34c2 1 1 2 3 0 1-1 2-2 3-1 2 0 5-1 6-2 1-1 3-1 3-2 0-1-2-3 2-3 5-1 6-2 7 0 1 1 3 1 0 3-4 2-5 2-8 5-3 3-2 3-4 3-2 1-5 2-8 1-3-1-6-1-6-1 0 0-2-1-1-2 1-1 1-1 3-1z m19-11c-1 0-2 1-3 1 0 0-2 0-1-2 1-2 2-2 3-2 1 1 3 3 1 3z m10-2c0 0 4 0 5 1 2 2 3 0 4 0 2 0 3 0 4 2 1 1 0 2-2 4-1 1-3 1-4 0-2 0-1-1-3-1-1-1-5-5-4-6z m18-1c0 0 2 0 3 0 0 0 2 0 0 2-1 3 0 3-3 3-2-1-2-1-2-1 0 0 1-4 2-4z m9-26c1-1 2-1 2 0 1 1 1 3-2 3 0 0-1-1-1-2 1 0 1-1 1-1z m-178 66c-3-25 7-16 7-16 1 6 2 15 2 15-1 1-2 0-2-3 0-3-1-10-3-9-3 0-1 13-2 13-2 1-2 0-2 0z m-12 2c0 0-1-12-1-15 0-4 2-7 6-7 5 1 4 7 4 13 1 5 1 8 1 8-2 1-2 0-3-6-1-7 0-10-4-10-3 0-1 12-1 15 1 3-2 2-2 2z m-14 4c0 0-2-12-2-21 0-10 11-7 12 0 0 6 2 18 2 18-3 3-3-4-5-10 0-6-1-11-4-10-3 1-1 18-1 21 1 3-2 2-2 2z m-4-221c-2-3-1-4 1-4 2 0 2 5 2 5-1 2-2 2-3-1z m7 1c0 0-3 1-2-3 0-4 2-4 3-4 1 1 1 4 1 5 0 1-1 3-2 2z m5 1c0 0-1-3 1-5 2-2 4-3 3 1-1 4-2 6-4 4z m-39 7c-1 1-2 1-3 0 0 0-1-3 2-3 2 0 2 3 1 3z m-10-6c0 0 0-2 1-2 1 0 1 0 1 1 1 1-2 2-2 1z m3-12c0 0-2-2 0-3 2-1 2-1 2 2 0 2-1 2-2 1z m11 0c0 0 2-1 2 0 0 1-1 2-1 2 0 0-2 0-1-2z m2-10c0 0 0-2 1-2 2 0 2 1 2 2-1 1-3 1-3 0z m9-2c0 0 2-1 2 0 0 0 0 1-1 1 0 1-1 0-1-1z m-1-34c0 0 4 8-2 6 0 0-2-1-1-5 0 0-3 1-1-3 1-3 2-6 6-3 3 2-2 5-2 5z m12-6c0 0-3-2-2-3 1-1 4-2 4 0 1 1-1 4-2 3z m12-3c0 0-3-1-2-2 2-2 5-2 5-2 0 1 2 5-3 4z m-9 15c0 0-4-2-2-4 1-1 4 1 4 1 0 0 0 3-2 3z m11 3c2-1 3 1 3 1 0 0-1 5-4 3 0 0-2-3 1-4z m14-16c3-1 4 0 4 0 0 0 1 3-5 4 0 0-1-3 1-4z m36 2c0 2-3 1-3 1 0 0-1 0-1-1 0-1 2-2 2-2 0 0 2-1 2 2z m0-14c-2 0-3-1-3-1 0 0-1-4 2-4 3 0 3 3 3 3 0 0 0 0-2 2z m16 5c0 2-2 3-4 2 0 0-3 0-3-2-1-3 4-3 4-3 0 0 3 1 3 3z m-4-11c0 0 0-2 3-2 3 0 3 1 3 1 0 0-5 4-6 1z m17 10c3 0 2 2 2 2 0 0-1 2-3 1-2 0-3 0-3-1 0 0 1-2 4-2z m-30 51c1 0 0 6 0 6 0 0-1 3-2 3 0 0-2 0-1-5 1-4 1-5 3-4z m7 2c1-2 2-2 3-1 2 1-2 7-2 7 0 0-4 2-4 0 0 1 1-4 3-6z m-53 1c-1 0-6-3-4-4 0 0 3 0 4 1 2 2 1 3 0 3z m7-3c0 0-5-5-3-6 2-1 4 2 5 4 0 2-1 3-2 2z m5-8c1-1 2-3 4 0 2 4 1 5-1 3 0 0-3-1-3-3z m13-2c1 5 0 5-1 3 0 0-3-2-2-4 1-1 3-3 3 1z m10-6c2 0 2 4 1 6-1 3-2 3-2 3 0 0-2 1-2-3 0-3 0-6 3-6z m9 8c0 0-2-6 1-8 4-3 2 2 2 4-1 3-2 5-3 4z m11 0c0 0-2 1-1-2 0-3 1-6 4-5 3 0-2 6-3 7z m16-7c1 3-6 9-8 8 0 0-2-1 0-3 3-3 6-8 8-5z m9 2c3 1-3 5-3 5 0 0-3 4-4 3 0 0-2-2 1-5 3-2 5-4 6-3z m-53-9c0 0-5-7-2-8 3-1 4 5 4 7-1 3-2 1-2 1z m47 2c0 0 2-4 2-5 1-2 2-4 4-2 2 3 0 3-1 5-2 2-6 4-5 2z m-105 288c0 0-5 1-7-5-2-6-1-8 0-8 1 1 2 6 3 5 2 0-1-5 1-5 2-1 2 5 4 4 1 0-2-5 0-6 3 0 6 13-1 15z m15-5c0 0-5 1-6-4-2-5-1-7 0-7 1 1 2 5 3 5 1-1-2-5 0-5 2-1 2 5 4 4 1 0-1-5 1-5 2-1 4 10-2 12z m-29-3c3-1 7 14-2 17 0 0-7 2-10-5-3-6-1-9 0-9 2 0 3 7 5 6 2-1-3-6 0-7 2-2 4 6 6 5 2 0-3-6 1-7z m42-2c0 0-4 1-6-4-1-4 0-6 1-6 1 0 1 5 2 4 1 0-1-4 1-4 2-1 2 4 4 3 1 0-1-4 0-4 2-1 4 9-2 11z m13-14c2 0 4 8-1 9 0 0-4 1-5-3-1-3 0-5 1-5 0 0 1 4 2 4 1-1-1-4 0-4 1 0 1 4 2 3 2 0 0-3 1-4z m12-2c2 0 3 8-2 8 0 0-4 1-5-3 0-4 1-5 1-5 1 0 1 3 2 3 1 0 0-3 1-3 1 0 1 3 2 3 1 0 0-3 1-3z m-76 7c-1-4-4-33-2-33 3-1 2 12 3 19 0 7 2 16 2 16 0 0-2 3-3-2z m18-5c-1-4-4-27-2-27 2 0 2 10 2 15 1 5 2 13 2 13 0 0-2 2-2-1z m14-4c0-4-2-21 0-21 2 0 1 7 1 11 1 4 1 11 1 11 0 0-1 2-2-1z m15-2c-1-2-3-16-1-16 2 0 2 6 2 9 0 3 1 7 1 7 0 0-2 2-2 0z m15-3c0 0-1 1-1-1-1-2-2-12 0-12 1 0 1 5 1 7 0 2 0 6 0 6z m11-2c0 0-1 1-1 0-1-2-2-11 0-11 1 0 1 4 1 6 0 2 0 5 0 5z m228 12l0-9c0 0 5 1 5 2 0 1 2-1 2-1 0 0-1 5-7 8z m7-25c-1 0-3 0-3 4 0 4 0 7-3 5l0-14c0 0 6-4 10 0 0 0 1 9-1 14 0 0-1 1-2-1-1 1 1-8-1-8z m-6-10c0 0-1-10 0-10 0 0 4 0 3 7 0 6-2 5-3 3z m7 2c0 0-1 0-1-4 0-4-1-7 0-7 1 0 2 3 3 7 1 3 0 4-2 4z m-6-21c2 0 6 0 7 4 0 4-5 3-8-1-1 0-2-3 1-3z m-2-5c0 0 0-12 0-12 1 1 4 8 6 11 1 3-5 3-6 1z m-1-74c1-7 0-7-1-7-2 0-3 10-6 3-1-3-3-9 1-8 5 0 16-1 12 8-4 9-8 10-6 4z m10-28c0 0 1 1 1 3-1 3-8 1-8 1l-16-1c0 0-2-3-2-4 0 0 24 0 25 1z m-15-14c0 6-1 11-6 11 0 0-7 1-8-4 0-4 0-11 2-11 2 0 0 8 2 8 2 0 2-3 2-6 0-2 3-3 3 0 0 4-2 7 0 6 2 0 2-1 2-4-1-3 3-7 3 0z m7 5c1 0 1-3 1-5 0-3 3-4 3 0 0 3-2 5 0 5 2-1 2-1 2-4-1-3 3-7 3 0 0 6-1 10-7 10 0 0-6 1-6-4 0-4-1-10 1-10 3 0 1 8 3 8z m-166-74c3 0 2 13-2 11 0 0-1-1-1-4 0-4 0-7 3-7z m10 1c0 5-3 7-3 6 0 0-1-4 0-7 1-3 4-3 3 1z m11-1c0 0-4 8-5 6 0 0-2-1 0-4 2-3 3-3 5-2z m10-14c-1 1-2 2-3 2 0 0-2-1-1-2 2-2 4-1 4 0z m8-1c2 1-2 5-5 5 0 0-1 0 0-2 2-2 3-4 5-3z m11-14c3-2 5-2 3 0-1 3-3 5-4 4 0 0-2-2 1-4z m13 2c1 2-4 8-6 8 0 0-2-1 0-4 2-4 5-6 6-4z m7 2c0 2-3 9-4 7 0 0-1-5 1-7 2-2 3-1 3 0z m9 3c0 2-2 7-3 6 0 0-2-1-1-4 2-3 5-5 4-2z m7 3c4 0-1 4-2 5-1 0-3 1-2 0 0 0-1-5 4-5z m0-14c-1 1-2 2-3 2 0 0-3 1-1-2 2-2 4-2 4 0z m8 1c-2 4-3 7-5 6 0 0-1-2 1-5 2-3 6-5 4-1z m5 6c0 3-6 12-6 9 0 0-1-3 1-6 2-3 6-7 5-3z m-18-19c-1-1-2-5 0-4 0 0 5 3 4 4 0 1-3 2-4 0z m8-8c-2-1-4-3-3-4 0 0 2-3 4 0 3 2 2 4-1 4z m37-5c0 0-5-4-1-5 4 0 5 1 4 4-1 2-1 2-3 1z m28-4c-1 0-5-2-3-4 0 0 3-1 5 1 1 3-1 3-2 3z m11 9c-2-1-3-2 0-4 0 0 2 0 3 2 2 2-1 3-3 2z m-19 2c0 0-4-6 0-6 5 0 3 4 3 4 0 0-2 3-3 2z m1 9c-2 2-3 1-4-1 0 0-3-5 0-5 3 1 6 4 4 6z m16 1c0 2-1 3-2 1 0 0-4-2-2-3 2-1 5 0 4 2z m-49 12c0 0-1-2 1-3 3 0 3 2 3 2-1 1-3 2-4 1z m3 16c0 0 0-3 2-4 3-1 2 2 2 3 0 1-4 3-4 1z m15-7c0 0-3-2-1-3 1 0 5 3 1 3z m10 8c2-1 4 2 0 3 0 0-3-3 0-3z m-13 1c0 0-3-1-1-2 1-2 2-2 3 0 1 2 0 2-2 2z m6 10c0 0-1-2 1-3 2-1 2 0 2 1 0 2-3 4-3 2z m-4 6c0 0 2-1 3 0 1 1-3 2-3 0z m26 12c1 2-2 3-3 1 0 0 1-2 3-1z m83-71c4 1 6 7 0 5 0 0-3-2-3-3 0-1 0-3 3-2z m-21 9c0 0-1-3 0-3 2 0 4 1 3 3-2 2-3 1-3 0z m-11 5c0 0-3-1-3-2 0-1 0-4 3-2 3 2 5 6 0 4z m-11 4c0 0-3-1-2-2 1-2 4-4 4-2 1 3 0 5-2 4z m25 5c0 0-3-1-2-2 0-1 2-2 3-1 1 1 1 4-1 3z m8-12c2 1 6 7 1 6 0 0-2-1-3-3 0-2 0-3 2-3z m-51 45c0 0 0-4 2-3 3 0 2 3 2 3 0 0-5 3-4 0z m0-16c-2 1-2 1-3 0 0 0-2-3 0-3 2 0 5 2 3 3z m9 10c1 1-7-2-4-3 0 0 3-1 4-1 1 1 0 2 0 4z m8 15c2 0 2 2 1 3-1 1-4 1-4-1 0 0 1-2 3-2z m1-6c4-3 3 4 1 3-1 0-3-2-1-3z m6 5c5 0 2 4 1 4 0 0-2-2-3-2 0-1-1-2 2-2z m-5-13c0-1 1-2 3-1 2 0 2 3 0 2 0 0-3 0-3-1z m11 2c1 1 0 3 1 4 0 2-1 3-2 2 0 0-1 0-1-2-1-2 1-4 2-4z m40 25c1 2 3 4 0 5 0 0-2 0-2-2 0-3 0-5 2-3z m5-2c0 0 2-1 4-1 1 0 0 2-1 3-1 0-5-2-3-2z m8 9c3-1 4 3 2 3 0 0-6-3-2-3z m-8 1c3 0 4 0 3 1-1 1-4 3-4 2 0 0-1-3 1-3z m-12 226c0 4-1 5-1 5 0 0-1-11 0-11 1 0 1 3 1 6z m-50-23c-2 0-3 4-3 6 0 2-2 3-3 0 0 0 0-9 4-8 6 0 7 3 5 10 0 0-1 2-2 0-2-1 1-7-1-8z m6 10c0 0-1-10 3-10 5 0 7 3 6 11 0 0-1 2-3 1-2-1 1-8-1-8-2 0-2 3-2 5 0 2-1 4-3 1z m12 3c0 0-1-10 4-10 4 0 6 3 5 11 0 0 0 2-2 1-2-2 0-9-2-9-2 0-2 4-2 6 1 2-1 4-3 1z m12 5l0-8c0 0 0-5 6-5 6 0 4 7 4 11 0 3 0 8-2 8-1-1-2-2-2-6 0-3 1-7-1-7-2 0-2 2-2 6 0 3-2 5-3 1z m17 9c0 0-4 3-4-2 0-5-2-18 7-19 8 0 6 10 6 16 0 7 1 14-1 12-3-2-3-3-3-8-1-5 1-12-2-13-2 0-4 1-3 7 0 6 0 7 0 7z m18-5c-1 8 0 13-2 13 0 0-3 1-3-3 0-4-2-19 4-22 5-2 12-1 12 5 0 5 0 18 0 21 0 3-3 5-4 1-1-5 2-23-2-23-4 0-5 0-5 8z m3 12c0 0-2-14 0-15 2-1 1 10 1 13 0 3-1 4-1 2z m-20-214c3 0 13 23 16 39 3 14 4 18 7 25 3 7 7 35 7 48 0 14 1 27 0 29-1 2-2 3-4 1-3-2-5-1-5-7 0-6 1-45-2-52-2-6-4-16-6-22-2-7-4-14-3-1 2 13 4 14 4 22 0 8 3 17 2 29 0 12 1 26 1 26 0 0-6 8-7 1 0-7 1-44 0-48 0-5-2-12-1-18 0-5-2-6-2-14-1-8-3-38-7-47-3-7-4-10 0-11z m-6 37c3 2 12 25 13 62 1 35 2 39 1 42-2 3-5 4-4-4 0-7-2-59-4-59-2-2 1 44 1 61l0 1c0 0-3 8-4 2 0-7 0-35-1-37-1-2-4-14-3-23 1-9 2-31 0-36-1-6-1-10 1-9z m-2 81c0 8 3 23 2 27 0 0-4 1-5-3 0-3 0-15-1-19 0-5 0-22-3-22-2 0-1 9 0 16 1 8 3 16 1 27 0 0-3 4-3 0 0-4 0-13-1-14-1-2-2-7-2-13 0-5 1-14-1-18-2-4-1-8-2-13-1-4-2-15-6-22-4-6 5-8 13 17 9 25 7 29 8 37z m-24 26c0-5 0-30-2-34-2-4-3-13-4-15-1-3-5-13-7-17-2-4-2-8 2-5 4 3 16 18 18 32 1 14 4 23 4 26 1 4 2 14 1 15-1 1-4 1-4-2 0-4-1-17-3-23-2-7-2-9-3-1 0 7 2 23 1 27 0 0-3 1-3-3z m-12 4c0 0-1-4-1-15 0-13-7-27-11-36-4-8 2-6 5-3 3 2 9 13 12 19 3 6 5 34 5 34 0 1-3 2-4 0-1-1-2-2-3 0 0 2-3 1-3 1z m-6-27c2 5 3 26 3 26 0 3-1 5-2-1-1-6-2-3-3 2-1 5-3-10-2-15 1-5-5-19-6-27-3-9 8 10 10 15z m3 50c-1-6 0-9-3-8-2 1 0 10-1 10-2 0-2-4-2-6 0-3-1-11 4-11 7 0 6 13 6 15-1 3-3 7-4 0z m14 5c-2 0-3-1-3-4 0-4 1-8-1-7-2 0-1 4-1 8 0 3-1 3-1 3 0 0-1 1-1-3 0-3-1-16 3-16 3-1 6 3 6 11-1 8-1 8-2 8z m8-22c6-1 5 11 5 14 0 3 1 9-1 9-1 0-1-1-1-5 0-3-1-11-2-11-2 0-3 4-2 10 0 5 0 6-1 6 0 0-3 0-3-4 0-4-2-19 5-19z m18 24c-2 1-3 0-3-3 0-4 0-16-2-16-2 0-3 4-3 10 0 6 2 9 1 9 0 0-3 2-4-4 0-6-1-22 4-22 4-1 7 5 7 13 0 6 2 13 0 13z m7 2c0 0-3 0-3-5-1-4 0-14 0-18 0-4 1-8 5-8 4-1 7 6 7 13 0 7 1 18-1 19-3 0-2-2-2-5 0-2 0-20-3-20-3 1-4 9-3 16 1 9 0 8 0 8z m3-3c0 0-1 1-1-4 0-4-1-12 0-12 2 0 1 4 1 8 1 4 1 8 0 8z m26 6c-3 1-4 1-4-4 0-5 0-21 0-21 0 0 0-6-4-6-4 0-4 3-4 8 0 6 2 21-2 21 0 0-3 0-3-5 0-5 0-19 0-22 0-2 1-8 8-9 7-1 9 8 9 18 0 10 2 20 0 20z m-8-5c0 0-1 0-2-4 0-4-1-17 1-17 1 0 2 1 1 4 0 11 1 17 0 17z m-77 123l2 16c0 2 0 4-3 4l-4 1-3-24 4 0c3 0 4 1 4 3z m-5-1l1 8 2 0 0 2-2 0 1 9 1 0c2 0 2 0 2-2l-2-16c0-1-1-1-2-1z m-181-115c0 0-3-1-3 3 0 0 0 2 0 3l6 0c3 0 5 2 5 4 0 2-2 4-5 4l-12 0 0-2c0 0 2 0 2-2 0-2 0-9 0-9 0 0-1-1-2-1l0-2 8 0z m1 12c1 0 2-1 2-2 0-1-1-2-2-2l-4 0c0 2 0 4 0 5l4 0z m-26-111c2 0 10 0 10 0 0 0 1 0 1-2l2 0 0 9-2 0c0 0 1-3-3-3 0 0-2 0-3 0l0 6c0 3-2 5-4 5-3 0-4-2-4-5l0-12 2 0c0 0-1 2 1 2z m-2 8c0 1 1 2 2 2 1 0 2-1 2-2l0-4c-1 0-3 0-4 0l0 4z m157-78c0 0 0-2-3-1-1 2-7 5-7 5 0 0-1 1 0 3l-1 1-6-8-2-3c-1-3-1-6 1-7 1-1 3-1 5 0 0-1 0-2 1-3 2-1 5-1 6 2l4 5 0 0 2 2 2 3z m-15-6c-1 1-1 2 0 4l2 3c1 0 1 0 2 0 0-1 1-1 2-2l-2-4c-1-2-3-2-4-1z m9-3c0-1-2-1-3-1-1 1-1 2 0 3l2 3c2-1 3-2 4-2z m-102 192c-5 0-9-4-9-8 0-5 4-9 9-9 5 0 9 4 9 9 0 4-4 8-9 8z m0-14c-2 0-4 3-4 6 0 3 2 6 4 6 2 0 4-3 4-6 0-3-2-6-4-6z m25 0c0 0-4-1-4 3 0 0 0 2 0 3l3 0 5-8c0 0 3-1 5 2l-1 1c0 0-2-1-3 1 0 1-2 3-2 4 2 0 4 2 4 4 0 2-2 4-4 4l-12 0 0-2c0 0 1 0 1-2 0-2 0-9 0-9 0 0 0-1-2-1l0-2 9 0z m1 12c1 0 2-1 2-2 0-1-1-2-2-2l-5 0c0 2 0 4 0 5l5 0z m-73-80c2 0 10 0 10 0 0 0 1 0 1-2l2 0 0 9-2 0c0 0 1-3-3-3 0 0-2 0-3 0l0 3 8 4c0 0 0 3-2 5l-1 0c0 0 1-2-1-3-1-1-3-2-4-3 0 3-2 5-4 5-3 0-4-2-4-5l0-12 2 0c-1 1-1 2 1 2z m-2 9c0 1 1 2 2 2 1 0 2-1 2-2l0-4c-2 0-4 0-5 0l0 4z m87-148c0 0 3-1 2-4 0 0-1-1-1-3l-3 1-2 8c0 0-3 1-6-1l1-1c0 0 2 1 2-1 1-1 1-3 1-4-2 0-4-1-5-4-1-2 1-4 3-5l8-3 3-1 0 2c0 0-2 0-1 2 1 2 3 9 3 9 0 0 1 2 3 1l0 2-9 2z m-6-10c0 1 1 3 2 2l4-1c0-2-1-3-1-4l-4 1c-1 0-2 1-1 2z m101 211c0 0 1-1-1-1-2 0-10 0-10 0 0 0-1 0-1 2l-2 0 0-9 2 0c0 0-1 3 3 3 0 0 2 0 3 0l0-2-8-5c0 0 0-3 2-5l1 1c0 0-1 2 1 3 1 0 3 2 4 2 0-2 2-4 4-4 3 0 4 2 4 4l0 12-2 0z m1-9c0-1-1-2-2-2-1 0-2 1-2 2l0 4c1 0 3 0 4 0l0-4z m-66 14l-2 0 6 9 8-10 8 8 5-7-3 0 0-1 11 0 0 1-1 0-8 11 0 4-3 0 0-3-7-6-7 9-7 0 0-3 2 0-9-12-1 0 0-1 8 0z m47 2l-1 0 0 10 1 0 0 2-7 0 0-2 1 0 0-10-1 0 0-3 7 0z m-163-48l11 0 0-1 2 0 0 8-2 0 0-1-11 0 0 1-2 0 0-8 2 0z m0 31l14 9-14 11 0 2-2 0 0-7 2 0 0 2 8-6-8-5 0 0-2 0 0-8 2 0z m-1-21l3 0 0 2-1 0 0 4 10 0 0-3 2 0 0 11-2 0 0-3-10 0 0 5 1 0 0 1-4 0 0-17z m1-44l11 0 0-1 2 0 0 7-2 0 0-1-11 0 0 1-2 0 0-7 2 0z m140-108c0 0-1 1-1 1l-7 7c0 0 0 0 0 0 0 0 0 1 1 2l-1 1-12-11 2-4 1 1c0 1 0 3 0 3 0 0 0 0 1 1l5 4 7-7c1 0 1-1 1-1 0 0-2-2-2-3l1-1 8 7-2 2c-1-2-2-2-2-2z m-112 19l8 5c0 0 0 0 0 0 0 0 1 0 1-1l2 1-9 13-5-1 1-1c1 0 3-1 3-1 1 0 1 0 1 0l3-6-9-5c0 0-1-1-1-1 0 0-1 2-2 3l-2-1 6-9 2 1c-1 2-1 2-1 2 0 1 1 1 2 1z m8 1l2-2c0 0 1 0 1 0 1 0 1 0 1 0 0 0 1-1 1-1l3-4-4-3-4 5-2-2 4-4-3-3-4 4c0 0 0 1 0 1 0 0 0 0 1 0l1 1-2 3-2-4 8-10 2 1c-1 0-1 0-1 1 0 0 0 0 0 0 0 0 0 1 0 1l8 6c1 0 1 1 1 0 0 0 0 0 1-1l2 1-10 12z m-26 31l10 4c1 0 1 0 1 0 0 0 0-1 0-2l2 1-4 14-5-1 1-2c1 0 1 0 1 0 1 0 1 0 1 0 0 0 0-1 1-1l1-5-5-2-2 6-2 0 2-6-4-2-1 6c0 0 0 0 0 0 0 0 0 1 0 1 0 0 0 0 0 0l1 1 0 2-4-3 5-13 1 0c0 1 0 1 0 1 0 1 0 1 0 1 0 0 0 0 0 0z m-5 17c3 0 4 2 5 5 0 1 0 2 0 3 1 2 1 3 1 3 0 1 1 1 2 1 0 0 0 0 1-1 0 0 0-1 0-2 0-1 0-3 0-3 0-1-1-2-3-3l1-3c2 1 3 2 5 2 0 3 0 4 0 6 0 4-1 5-2 7-1 2-3 2-4 2-1 0-2 0-2-1-1-1-1-3-2-5 0 0 0-1 0-3-1-1-1-2-2-3 0 0 0 0 0 0-1 0-2 0-2 2 0 1 0 5 0 5 1 1 2 2 4 2l-2 3c-1-1-3-1-4-2-1-3-1-4-1-6 1-3 1-5 2-7 0-1 2-2 3-2z m174 66c1 0 0 0 0 0 1 0 1 0 1 0 0 0 0-1 0-1l0-6-12 10c0 0-1 2-1-1 0-3 0-16 0-16l4-1 0 3c-1 0-1 0-1 1 0 0-1 1-1 2l0 4 12-10c0 0 1-1 1 2 0 3 0 16 0 16l-4 1 0-4z m-9 28c0 0 0 1 0 2l-3 0 0-7 3 0c0 1 0 1 0 2l2-2 0-7c-2-1-2-1-2-1 0 0 0 2 0 2l-3 0 0-11 3 0c0 1 0 2 0 2 0 0 0 0 0 0l13 8 0 5-13 7c0 0 0 0 0 0z m5-6l4-2-4-2z m-5-41c0 0 0 0 0 1l-3 0 0-6 3 0c0 0 0 1 0 1l2-1 0-7c-2-2-2-2-2-2 0 0 0 3 0 3l-3 0 0-11 3 0c0 1 0 1 0 1 0 0 0 1 0 1l13 8 0 4-13 8c0-1 0-1 0 0z m4-7l4-2-4-2z m-56-114l-1 3-6-4 2-3c1 1 1 1 1 1l1-3-7-4c-2 1-2 2-2 2 0 0 2 1 2 1l-2 3-8-6 1-2c1 0 1 0 2 0 0 0 0 0 1 0l13-6 4 2-1 14c0 1 0 1 0 1-1 0 0 1 0 1z m-8-10l4 2 0-4z m-39 8l-2-3c1 0 2 0 2-1l-3-1-6 4c0 2 1 3 1 3 0 0 2-2 2-2l1 2-8 7-2-2c1-1 1-1 1-1 0 0 0-1 0-1l-1-15 4-2 13 6c0 0 0 0 0 0 0 0 1 0 1-1l2 2z m-9-7l0 4 3-2z m97 64c0 0 0 1 0 2l-2 1-3-6 3-1c0 0 0 1 0 1l2-3-3-6c-3-1-3-1-3-1 0 0 1 3 1 3l-2 2-5-10 3-1c0 0 0 1 0 1 0 0 1 1 1 1l15 1 2 4-9 12c0 0 0 0 0 0z m4-11l-4-1 1 4z m14 34c0 0 0 0 0 0 0 0-2 0-2 0l-9 2c0 0 0 0 0 1 0 0 0 0 0 1l-2 1-2-8 2-1c0 1 0 1 1 1 0 1 0 1 0 1 0 0 0 0 0 0l4-1-2-7-4 1c0 0 0 0 0 0 0 0 0 1 0 2l-2 0-2-8 2 0c0 0 1 1 1 1 0 0 0 0 0 0 0 0 1 0 1 0l9-2c0 0 1-1 1-1 0 0 0 0-1-1l2-1 3 9-3 0c0 0 0-1 0-1 0 0 0 0-1 0 0 0-1 0-1 0l-3 0 2 7 3-1c1 0 1 0 1 0 0 0 0-1 0-2l2 0 2 8-2 0c0 0 0-1 0-1z"/>
<glyph glyph-name="comunicacion-social" unicode="&#64;" d="M310 202c7-7 6-19-1-25-9-9-24-8-32 2-10 11-9 29 2 39 14 13 37 12 50-3 16-18 14-46-4-62-22-20-57-18-77 5-25 28-23 71 5 96 36 32 90 29 121-6 40-44 36-112-8-151-56-49-140-45-189 11 0 0-62 115-103 114 0 0 67 63 140-11 0 0-13-30 22-65 29-28 68-33 100-2 32 32 18 62 2 78-15 16-46 24-66 4-19-19-15-40 0-54 16-16 33-12 44 0 12 11 10 28 2 36z m-99 35c0 0 18 43 60 54l0 41c0 0-63-7-81-79 0 0 9-5 21-16z m-50 27c0 0 20 81 110 98l0 33c0 0-119-11-142-128 0 0 17 2 32-3z m-57-3c0 0 25 142 167 153l0 31c0 0-197 10-199-201 0 0 19 15 32 17z"/>
<glyph glyph-name="biblioteca-1" unicode="&#91;" d="M466 373l0-290c-112 37-204 18-204 18-112 19-212-17-212-17l0 289c9 5 18 9 28 12l0-265c0 0 88 53 181 0 0 0 78 59 178 0l0 266c19-6 29-13 29-13z m-391-258l0 285 1 1c38 21 86 20 121 16 32-5 59-13 65-15 100 45 176 0 176-1l2-1 0-285-5 3c-97 57-173 0-174 0l-2-1-1 1c-91 51-178 0-179 0z m95 31c27 0 57-5 89-23 5 4 24 15 51 22 29 7 74 8 124-20l0 272c-11 6-80 40-171-1l-1 0-1 0c-1 1-111 39-180 1l0-272c8 5 27 13 52 18 11 2 23 3 37 3z m92 234c1-19 2-37 2-55 0-10 0-19 0-28l0-55c0-10 0-19 0-28-1-18-1-37-2-55-1 18-2 37-2 55-1 9-1 18-1 28l0 55c0 9 0 18 1 28 0 18 1 36 2 55z"/>
</font>
</defs>
</svg>
